<svg width="74" height="48" viewBox="0 0 74 48" fill="none" xmlns="http://www.w3.org/2000/svg">
<path fill-rule="evenodd" clip-rule="evenodd" d="M3.62157 27.7461H8.15628V36.0044C8.15628 38.6453 10.048 40.7888 12.3798 40.7888C13.1108 40.7888 13.789 40.5585 14.3875 40.1873V42.5044C14.3875 45.148 16.2794 47.29 18.6124 47.29C20.9434 47.29 22.8359 45.1465 22.8359 42.5044V27.7461H49.7082V42.5044C49.7082 45.148 51.5991 47.29 53.9323 47.29C56.2644 47.29 58.1554 45.1465 58.1554 42.5044V40.1842C58.7547 40.557 59.4341 40.7858 60.1643 40.7858C62.4978 40.7858 64.3887 38.645 64.3887 36.0014V27.7446H69.989C71.9897 27.7446 73.609 25.9104 73.609 23.6438C73.609 21.3778 71.99 19.5426 69.989 19.5426H64.3887V11.2874C64.3887 8.64527 62.4978 6.50241 60.1643 6.50241C59.4341 6.50241 58.7547 6.73237 58.1554 7.10394V4.78437C58.1554 2.14165 56.2644 0 53.9323 0C51.5991 0 49.7082 2.14286 49.7082 4.78437V19.5426H22.8359V4.78619C22.8359 2.14316 20.9445 0.00181547 18.6124 0.00181547C16.2811 0.00181547 14.3875 2.14498 14.3875 4.78619V7.10424C13.7879 6.73268 13.1111 6.50423 12.3798 6.50423C10.0477 6.50423 8.15628 8.64588 8.15628 11.2892V19.5448H3.62157C1.62089 19.5448 0 21.3811 0 23.6459C0 25.9104 1.62089 27.7461 3.62157 27.7461Z" fill="#FCFCFC"/>
</svg>
