<svg width="172" height="115" viewBox="0 0 172 115" fill="none" xmlns="http://www.w3.org/2000/svg">
<path opacity="0.1" fill-rule="evenodd" clip-rule="evenodd" d="M100.212 22.6418C90.1472 22.2775 80.5612 18.9694 71.4138 15.3571C62.2664 11.7449 53.1936 7.72571 43.3696 5.80795C37.051 4.57432 29.8242 4.40012 24.7342 7.84923C19.8339 11.1748 18.2507 16.8996 17.4 22.2174C16.7593 26.2176 16.383 30.4268 18.1372 34.1721C19.3564 36.7724 21.5181 38.9577 23.0142 41.4488C28.2193 50.1143 24.5398 60.8005 18.9008 69.2618C16.257 73.2319 13.1856 77.0215 11.1436 81.2434C9.10172 85.4653 8.15774 90.3096 9.94462 94.6202C11.7144 98.896 15.9335 102.101 20.5041 104.358C29.7869 108.941 40.7212 110.254 51.3911 110.996C75.0031 112.642 98.7395 111.929 122.414 111.216C131.175 110.952 139.974 110.684 148.593 109.305C153.38 108.539 158.321 107.322 161.796 104.388C166.207 100.662 167.3 94.351 164.344 89.6793C159.386 81.842 145.682 79.8958 142.212 71.4836C140.306 66.8547 142.264 61.6969 145.037 57.4037C150.983 48.1934 160.95 40.1122 161.475 29.5828C161.835 22.352 157.044 15.1101 149.635 11.6879C141.87 8.10103 131.101 8.55236 125.375 14.4893C119.468 20.5957 109.1 22.9474 100.212 22.6418Z" fill="#2D92AF"/>
<path fill-rule="evenodd" clip-rule="evenodd" d="M26.5 115C32.8513 115 38 113.881 38 112.5C38 111.119 32.8513 110 26.5 110C20.1487 110 15 111.119 15 112.5C15 113.881 20.1487 115 26.5 115Z" fill="#2D92AF"/>
<path fill-rule="evenodd" clip-rule="evenodd" d="M26.5 114C27.3284 114 28 113.105 28 112C28 110.895 27.3284 110 26.5 110C25.6716 110 25 110.895 25 112C25 113.105 25.6716 114 26.5 114Z" fill="#3F3D56"/>
<path fill-rule="evenodd" clip-rule="evenodd" d="M26.5 112C27.3284 112 28 111.105 28 110C28 108.895 27.3284 108 26.5 108C25.6716 108 25 108.895 25 110C25 111.105 25.6716 112 26.5 112Z" fill="#3F3D56"/>
<path fill-rule="evenodd" clip-rule="evenodd" d="M26.5 110C27.3284 110 28 109.105 28 108C28 106.895 27.3284 106 26.5 106C25.6716 106 25 106.895 25 108C25 109.105 25.6716 110 26.5 110Z" fill="#3F3D56"/>
<path fill-rule="evenodd" clip-rule="evenodd" d="M26.5 107C27.3284 107 28 106.105 28 105C28 103.895 27.3284 103 26.5 103C25.6716 103 25 103.895 25 105C25 106.105 25.6716 107 26.5 107Z" fill="#3F3D56"/>
<path fill-rule="evenodd" clip-rule="evenodd" d="M26.5 105C27.3284 105 28 104.105 28 103C28 101.895 27.3284 101 26.5 101C25.6716 101 25 101.895 25 103C25 104.105 25.6716 105 26.5 105Z" fill="#3F3D56"/>
<path fill-rule="evenodd" clip-rule="evenodd" d="M26.5 103C27.3284 103 28 102.105 28 101C28 99.8954 27.3284 99 26.5 99C25.6716 99 25 99.8954 25 101C25 102.105 25.6716 103 26.5 103Z" fill="#3F3D56"/>
<path fill-rule="evenodd" clip-rule="evenodd" d="M26.5 101C27.3284 101 28 100.105 28 99C28 97.8954 27.3284 97 26.5 97C25.6716 97 25 97.8954 25 99C25 100.105 25.6716 101 26.5 101Z" fill="#3F3D56"/>
<path fill-rule="evenodd" clip-rule="evenodd" d="M31.6038 84.4832C31.7896 84.248 31.9588 84.0002 32.11 83.7415L28.5441 83.1571L32.3997 83.1857C33.1479 81.5631 33.1928 79.7047 32.5239 78.0481L27.3517 80.7257L32.1275 77.2318C30.9082 75.1338 28.6172 73.89 26.1892 74.0077C23.7611 74.1253 21.6018 75.5847 20.592 77.7906C19.5821 79.9966 19.8906 82.5803 21.3915 84.4879C21.1026 84.8548 20.8539 85.2515 20.6496 85.6711L25.279 88.0692L20.344 86.4175C19.6386 88.4933 20.0327 90.784 21.3915 92.5064C19.2952 95.1646 19.5991 98.9837 22.0895 101.279C24.5798 103.574 28.4202 103.574 30.9105 101.279C33.4009 98.9837 33.7048 95.1646 31.6085 92.5064C33.4636 90.1539 33.4636 86.8404 31.6085 84.4879L31.6038 84.4832Z" fill="#2D92AF"/>
<path opacity="0.1" fill-rule="evenodd" clip-rule="evenodd" d="M20.0001 88.0977C19.9982 89.5921 20.4884 91.0435 21.3915 92.2168C19.2952 94.9484 19.5991 98.8729 22.0895 101.231C24.5798 103.59 28.4202 103.59 30.9105 101.231C33.4009 98.8729 33.7048 94.9484 31.6085 92.2168C32.4746 91.0858 20.0001 87.3519 20.0001 88.0977Z" fill="black"/>
<path fill-rule="evenodd" clip-rule="evenodd" d="M83.0175 86.495C83.1093 87.648 83.5655 88.8413 84.5252 89.5215C85.485 90.2018 87.012 90.1888 87.7451 89.2751C87.9913 88.932 88.1724 88.5489 88.2798 88.1437C88.8974 86.2442 89.3358 84.166 88.6589 82.2852C87.1319 82.1887 85.362 81.4897 84.2157 82.7176C83.29 83.7178 82.9108 85.1619 83.0175 86.495Z" fill="#3F3D56"/>
<path fill-rule="evenodd" clip-rule="evenodd" d="M89.8609 73.7145C89.6574 75.4981 89.3114 77.2741 89.3471 79.07C89.3604 79.7632 89.4317 80.4503 89.4332 81.1466C89.4358 82.9545 88.9746 84.7309 88.0967 86.295C88.0043 86.4789 87.8805 86.6441 87.7314 86.7827C87.3795 87.0772 86.8494 87.0526 86.4544 86.8272C86.0684 86.5793 85.7549 86.2278 85.5471 85.8104C84.4408 83.8535 84.4096 81.4748 83.9715 79.2556C83.6359 77.5578 83.0479 75.9122 82.8355 74.1945C82.6974 73.0888 82.7182 71.9615 82.4984 70.8696C82.4316 70.5398 82.2445 70.0445 82.1213 69.5583C82.0084 69.1243 81.946 68.6979 82.0619 68.405C82.298 67.8053 83.0716 68.0384 83.575 68.0752C85.3478 68.211 87.128 68.2064 88.9001 68.0614C89.0753 68.0476 89.2743 68.04 89.3975 68.1688C89.4513 68.2339 89.4917 68.3095 89.5163 68.3912C89.6574 68.7899 89.7652 69.2004 89.8386 69.6181C90.0836 70.9539 90.0153 72.3541 89.8609 73.7145Z" fill="#FABDBD"/>
<g opacity="0.1">
<path fill-rule="evenodd" clip-rule="evenodd" d="M89.8738 68.0766C89.7754 68.0667 89.6762 68.0667 89.5778 68.0766C88.6626 68.1471 87.7458 68.1823 86.8306 68.1869C87.845 68.189 88.8594 68.1522 89.8738 68.0766Z" fill="black"/>
<path fill-rule="evenodd" clip-rule="evenodd" d="M87.2625 86.8253C86.8467 86.5776 86.5088 86.2265 86.2849 85.8094C85.0929 83.8543 85.0593 81.4777 84.5873 79.2606C84.2257 77.5644 83.5921 75.9202 83.3633 74.2041C83.2145 73.0994 83.2369 71.9731 83.0001 70.8822C82.9281 70.5527 82.7265 70.0578 82.5937 69.5721C82.4721 69.1385 82.4049 68.7125 82.5297 68.4198C82.6381 68.1744 82.8915 68.0167 83.1697 68.0215C82.7649 67.9954 82.3697 68.0414 82.2097 68.4198C82.0849 68.7125 82.1521 69.1385 82.2737 69.5721C82.4065 70.0578 82.6081 70.5527 82.6801 70.8822C82.9169 71.9731 82.8945 73.0994 83.0433 74.2041C83.2721 75.9218 83.9057 77.5659 84.2673 79.2606C84.7393 81.4777 84.7729 83.8573 85.9649 85.8094C86.1888 86.2265 86.5267 86.5776 86.9425 86.8253C87.1979 86.9607 87.4907 87.0174 87.7809 86.9877C87.5991 86.9649 87.4233 86.9099 87.2625 86.8253Z" fill="black"/>
</g>
<path fill-rule="evenodd" clip-rule="evenodd" d="M96.0547 82.7484C95.1107 84.6505 95.268 87.3451 95.268 87.3451C95.4254 93.6854 92.9078 107 92.9078 107H90.705C90.705 107 90.3903 92.2588 90.705 90.9908C91.0197 89.7227 90.5477 85.2845 90.0756 79.1027C89.7248 74.506 90.6798 70.3405 91.1928 68.5129C91.369 67.8789 91.4917 67.5317 91.4917 67.5317C91.4917 67.5317 95.1107 62.1425 97.1562 64.6786C97.6282 65.2682 97.8784 66.4586 97.9649 67.9613C98.245 72.9194 96.7785 81.2886 96.0547 82.7484Z" fill="#FABDBD"/>
<path opacity="0.1" fill-rule="evenodd" clip-rule="evenodd" d="M96.9685 67.9602C96.8907 66.4575 96.6687 65.2655 96.2417 64.6775C95.8317 64.1132 95.351 63.942 94.8533 64.0165C95.239 64.0882 95.5848 64.3252 95.8175 64.6775C96.2417 65.2671 96.4665 66.4575 96.5443 67.9602C96.796 72.9185 95.4782 81.2879 94.8278 82.7478C93.9795 84.6499 94.1209 87.3446 94.1209 87.3446C94.2622 93.685 92 107 92 107H92.4242C92.4242 107 94.6864 93.685 94.545 87.3446C94.545 87.3446 94.4036 84.6499 95.252 82.7478C95.9024 81.2879 97.2201 72.9185 96.9685 67.9602Z" fill="black"/>
<path fill-rule="evenodd" clip-rule="evenodd" d="M89.477 106.687C89.3229 106.82 89.1897 106.981 89.0826 107.162C88.8357 107.676 89.186 108.291 89.5612 108.7C89.9363 109.11 90.3888 109.548 90.3888 110.131C90.3888 110.599 90.0674 111.001 89.7074 111.251C89.5143 111.385 89.2715 111.555 89.3115 111.808C89.3255 111.872 89.3503 111.932 89.3846 111.986C89.6936 112.508 90.2412 112.814 90.7957 112.93C91.3501 113.045 91.9226 112.995 92.4867 112.945C92.5712 112.948 92.6538 112.917 92.7184 112.856C92.7593 112.796 92.7811 112.722 92.7805 112.646C92.8081 112.324 92.7902 111.983 92.9184 111.692C93.0977 111.295 93.5102 111.093 93.746 110.736C94.0771 110.249 94.0315 109.572 93.906 108.98C93.6302 107.691 93.0164 106.221 92.095 105.328C91.0274 104.302 90.1901 105.946 89.477 106.687Z" fill="#3F3D56"/>
<path fill-rule="evenodd" clip-rule="evenodd" d="M93.4556 27.6571C94.3186 26.3726 94.0943 24.5769 93.2128 23.2986C92.3313 22.0203 90.9146 21.2164 89.4531 20.6973C87.4827 19.9981 85.3098 19.7594 83.2854 20.2846C81.6738 20.702 80.2262 21.5752 78.7075 22.2498C76.0206 23.4436 73.0992 24.0225 70.1581 23.9439C66.8933 23.853 63.316 23.0198 60.5771 24.7971C55.5631 28.0452 57.7932 36.8854 53.0499 40.5062C51.7709 41.4826 50.1609 41.9092 48.7381 42.6624C47.3152 43.4155 45.9666 44.7261 46.0006 46.3309C46.0161 47.1009 46.3563 47.8356 46.7739 48.487C48.5525 51.2947 51.8776 53.0319 55.2074 52.9996C58.5371 52.9672 61.7865 51.2038 63.7058 48.4901C64.1868 47.8109 64.6105 47.0547 65.308 46.6019C66.6999 45.6933 68.5342 46.3293 70.1952 46.4649C73.893 46.7652 77.5924 44.0007 78.3286 40.3738C78.6379 38.8259 78.5838 36.9763 79.835 36.0045C80.8449 35.2206 82.2662 35.3884 83.5467 35.2544C85.8882 35.0126 87.7364 33.5603 89.0077 31.6629C89.5907 30.7927 89.6588 29.7532 90.4537 29.0678C91.3105 28.3147 92.6359 28.8707 93.4556 27.6571Z" fill="#3F3D56"/>
<g opacity="0.1">
<path fill-rule="evenodd" clip-rule="evenodd" d="M66.8124 23.2685C68.1826 23.3054 69.5529 23.2026 70.9015 22.9615C70.5296 22.9723 70.1546 22.9723 69.7812 22.9615C67.1921 22.8909 64.4093 22.366 61.9937 22.9984C63.5874 23.0137 65.2358 23.2255 66.8124 23.2685Z" fill="black"/>
<path fill-rule="evenodd" clip-rule="evenodd" d="M61.9095 45.8589C61.2048 46.3102 60.7767 47.0638 60.2907 47.7407C58.7971 49.8001 56.6142 51.2784 54.1235 51.9171C54.3063 51.9248 54.4892 51.9294 54.6735 51.9279C58.0407 51.8956 61.3204 50.1382 63.2595 47.4337C63.7454 46.7568 64.1735 46.0032 64.8782 45.552L65.0001 45.4783C63.897 45.3294 62.8142 45.2772 61.9095 45.8589Z" fill="black"/>
<path fill-rule="evenodd" clip-rule="evenodd" d="M93.072 22.3246C92.1829 21.0567 90.7501 20.2494 89.2735 19.7321C87.2829 19.0353 85.0876 18.7974 83.0423 19.3208C82.9954 19.3315 82.9501 19.3453 82.9048 19.3576C84.0658 19.4212 85.2112 19.6508 86.3048 20.0391C87.7813 20.5564 89.2142 21.3637 90.1032 22.6315C90.9923 23.8993 91.2204 25.7013 90.3485 26.9753C89.5204 28.1893 88.1813 27.6353 87.3048 28.3827C86.5017 29.0658 86.4329 30.1018 85.8438 30.969C84.7392 32.5914 83.2017 33.8853 81.2876 34.3765C81.9454 34.2997 82.6392 34.3089 83.2954 34.2414C85.661 34.0004 87.5282 32.553 88.8126 30.662C89.4017 29.7948 89.4704 28.7588 90.2735 28.0758C91.1501 27.3283 92.4892 27.8824 93.3173 26.6683C94.1907 25.3882 93.9642 23.5924 93.072 22.3246Z" fill="black"/>
<path fill-rule="evenodd" clip-rule="evenodd" d="M80.328 34.5484C79.0421 34.6804 77.6062 34.5146 76.578 35.2959C75.314 36.2644 75.3749 38.1078 75.0562 39.6503C74.5077 42.3471 72.2796 44.5712 69.6343 45.3985L69.8202 45.4153C73.5562 45.7147 77.2937 42.9595 78.0374 39.3449C78.3499 37.8023 78.2952 35.9589 79.5593 34.9904C79.8496 34.7771 80.179 34.6208 80.5296 34.53C80.4593 34.5315 80.3952 34.5422 80.328 34.5484Z" fill="black"/>
</g>
<path fill-rule="evenodd" clip-rule="evenodd" d="M118.609 21.4054C118.609 21.4054 114.832 28.7969 113.573 31.5687C112.314 34.3406 100.825 38.4983 99.2514 38.6523C98.8292 38.7089 98.436 38.8942 98.1277 39.182C97.2385 39.9519 96.7333 41.2701 96.7333 41.2701C96.7333 41.2701 97.3628 45.4278 96.5759 52.3573C96.5602 52.4913 96.546 52.6253 96.5334 52.7546C95.8473 59.3485 97.2841 60.9038 97.2841 60.9038C97.2841 60.9038 82.0185 66.6014 82.4906 59.2099C82.6386 56.8831 82.6165 55.1831 82.4702 53.7617C82.31 52.3067 82.0075 50.8701 81.5668 49.4716C81.1938 48.195 80.7485 46.7952 80.2873 44.8889C80.0654 43.9377 79.7729 43.0036 79.4123 42.0939C79.4013 42.0662 79.3903 42.0385 79.3808 42.0123C78.594 40.1013 77.8071 39.4838 77.357 39.2836C76.932 39.1027 76.527 38.8798 76.1483 38.6184C74.6941 37.5913 71.5733 35.2891 68.794 32.5697C65.017 28.8739 61.2399 20.0965 61.2399 20.0965C61.2399 20.0965 60.1383 15.0149 62.6563 10.8571C65.1744 6.69941 64.0727 19.0186 64.0727 19.0186C64.0727 19.0186 68.6367 25.0242 69.7383 27.796C70.3049 29.2219 71.2051 29.9519 71.9416 30.3307C73.1584 30.9505 74.3235 31.6631 75.4259 32.4619C76.171 33.0128 76.954 33.5129 77.7693 33.9587C79.5288 34.8826 81.6361 35.9251 83.3924 36.1992C83.6666 36.2435 83.9439 36.2667 84.2218 36.2685C84.489 36.2768 84.745 36.163 84.9142 35.9605C85.3864 35.4169 85.3754 34.2466 85.2668 33.2842C85.2088 32.7856 85.1226 32.2905 85.0087 31.8013C85.0087 31.8013 90.1234 28.6445 89.9661 32.4942C89.9417 32.9196 89.982 33.3462 90.0857 33.76C90.2561 34.5333 90.8388 35.1569 91.6107 35.3923C92.2248 35.5686 92.8747 35.5892 93.4992 35.4524C93.6939 35.4198 93.882 35.3569 94.0563 35.266C94.5285 34.9581 99.2498 33.5721 100.666 33.4182C102.083 33.2642 109.165 29.8764 109.165 29.8764L116.876 19.4051C116.876 19.4051 116.719 13.2455 119.866 10.7817C123.014 8.31784 118.609 21.4054 118.609 21.4054Z" fill="#FABDBD"/>
<g opacity="0.1">
<path fill-rule="evenodd" clip-rule="evenodd" d="M96.4739 52.7338C96.3367 53.9701 96.2764 55.2135 96.2933 56.4569C96.309 55.6446 96.364 54.7169 96.4739 53.6569C96.4865 53.5277 96.5006 53.3938 96.5163 53.26C96.7911 50.8907 96.9222 48.5076 96.909 46.1231C96.8848 48.1995 96.7537 50.2734 96.5163 52.3369C96.5069 52.4708 96.4865 52.6046 96.4739 52.7338Z" fill="black"/>
<path fill-rule="evenodd" clip-rule="evenodd" d="M85.1351 32.6246C85.0299 32.6846 84.978 32.7215 84.978 32.7215C85.1307 33.3797 85.2315 34.0483 85.2796 34.7215C85.3113 34.0195 85.2628 33.3161 85.1351 32.6246Z" fill="black"/>
<path fill-rule="evenodd" clip-rule="evenodd" d="M64.1509 19.1169C64.2279 18.04 64.3426 16.1092 64.3206 14.3923C64.2939 16.6877 64.085 19.0292 64.085 19.0292L64.1509 19.1169Z" fill="black"/>
<path fill-rule="evenodd" clip-rule="evenodd" d="M82.4695 59.9261C82.4695 59.9861 82.4695 60.0461 82.4585 60.1061C81.9873 67.4908 97.2229 61.7985 97.2229 61.7985C97.0447 61.5627 96.9102 61.2982 96.8255 61.0169C94.5307 61.8169 82.9988 65.5369 82.4695 59.9261Z" fill="black"/>
<path fill-rule="evenodd" clip-rule="evenodd" d="M118.506 21.4139C118.506 21.4139 114.736 28.7985 113.48 31.5677C112.223 34.3369 100.757 38.4908 99.1864 38.6446C98.7651 38.7012 98.3727 38.8864 98.065 39.1739C97.1775 39.9431 96.6733 41.26 96.6733 41.26C96.6733 41.26 96.711 41.5108 96.7566 41.9877C96.9325 41.5923 97.3849 40.6846 98.065 40.0969C98.3727 39.8095 98.7651 39.6243 99.1864 39.5677C100.757 39.4139 112.223 35.26 113.48 32.4908C114.736 29.7215 118.506 22.3369 118.506 22.3369C118.506 22.3369 121.162 14.4369 120.87 12.0739C120.628 15.1015 118.506 21.4139 118.506 21.4139Z" fill="black"/>
<path fill-rule="evenodd" clip-rule="evenodd" d="M82.4383 53.74C82.2784 52.2863 81.9765 50.851 81.5367 49.4539C81.1644 48.1785 80.7199 46.78 80.2597 44.8754C80.0382 43.9251 79.7463 42.9919 79.3864 42.0831C79.3754 42.0554 79.3644 42.0277 79.355 42.0015C78.5697 40.0923 77.7843 39.4754 77.3351 39.2754C76.911 39.0947 76.5068 38.872 76.1288 38.6108C74.6775 37.5846 71.5629 35.2846 68.789 32.5677C65.0194 28.8754 61.2498 20.1062 61.2498 20.1062C61.1105 19.3659 61.0327 18.6157 61.0173 17.8631C60.9789 18.9236 61.0569 19.985 61.2498 21.0292C61.2498 21.0292 65.0194 29.7985 68.789 33.4908C71.5629 36.2077 74.6775 38.5077 76.1288 39.5339C76.5098 39.7956 76.9171 40.0183 77.3445 40.1985C77.7922 40.3985 78.576 41.0154 79.3644 42.9246C79.3739 42.9508 79.3849 42.9785 79.3959 43.0062C79.7542 43.9151 80.0444 44.8483 80.2644 45.7985C80.7246 47.7031 81.1691 49.1015 81.5414 50.3769C81.9812 51.7741 82.2831 53.2094 82.443 54.6631C82.5089 55.3062 82.5482 56.0062 82.5592 56.7939C82.5782 55.7745 82.5379 54.7549 82.4383 53.74Z" fill="black"/>
</g>
<path fill-rule="evenodd" clip-rule="evenodd" d="M97.9894 46.3841C97.7584 46.7959 97.5561 47.2256 97.3841 47.6698C97.1556 48.3551 97.1541 49.1008 97.1117 49.8268C97.0513 50.8458 96.9075 51.857 96.6819 52.8487C96.6454 53.0313 96.5948 53.2103 96.5306 53.3839C96.4854 53.5007 96.4258 53.6104 96.3535 53.7102C96.2728 53.8166 96.178 53.9095 96.072 53.9859C95.9096 54.1027 95.7379 54.2037 95.559 54.2878C93.4524 55.3484 91.1551 56.2849 88.8563 55.9194C87.8845 55.7363 86.9441 55.3952 86.0672 54.9078C85.2348 54.4722 84.2935 53.9549 83.4309 54.3172C83.2985 54.3896 83.1558 54.4376 83.0087 54.4591C82.9802 54.4596 82.9518 54.4569 82.9239 54.451C82.6394 54.3922 82.6394 53.3577 82.5743 53.0526C82.3261 51.8811 82.2883 50.9315 82.14 49.9133C82.0612 49.3503 81.9392 48.7952 81.7753 48.2539C81.1699 46.2796 80.9868 44.1748 80.9868 42.1059C80.9868 42.0031 80.3058 42.1059 80.0788 42.0961C80.0213 42.0961 79.9895 42.0863 80.0031 42.0651C80.0163 42.0448 80.0315 42.0262 80.0485 42.0096C80.1278 41.9402 80.2203 41.8906 80.3194 41.8644L80.498 41.8073C81.4333 41.5217 82.4654 41.4026 83.1645 40.6928C83.891 39.9602 84.0726 38.7903 84.0408 37.72C84.0317 37.3757 83.8758 36.5403 83.9016 35.8468C84.1652 35.8938 84.4319 35.9184 84.6991 35.9203C84.9561 35.9291 85.2022 35.8085 85.365 35.5939C85.6175 36.1209 85.8359 36.6661 86.0187 37.2256C86.276 37.9076 86.4728 38.6255 86.8496 39.2423C87.4549 40.2474 88.5718 40.9082 89.6826 40.8071C90.7934 40.7059 91.827 39.7856 92.0253 38.6043C92.1993 37.5682 91.7953 36.0769 91.8043 35C92.3949 35.1868 93.0198 35.2087 93.6204 35.0636C93.6459 35.1301 93.6676 35.1982 93.6854 35.2676C94.026 36.5272 94.48 37.9729 95.6225 38.4199C96.3611 38.7071 97.2343 38.4917 97.9168 38.9094C97.9693 38.942 98.0198 38.9779 98.0681 39.0171C98.2257 39.1434 98.3615 39.2986 98.4692 39.4756C98.7496 39.9747 98.9161 40.5384 98.955 41.1203C99.1297 42.9396 98.7933 44.7735 97.9894 46.3841Z" fill="#2D92AF"/>
<path opacity="0.1" fill-rule="evenodd" clip-rule="evenodd" d="M90 35.6019C88.4319 36.2827 86.6699 36.0824 85.2542 35.0624C85.1971 34.4971 85.1122 33.9358 85 33.3811C85 33.3811 90.0372 29.8022 89.8822 34.1668C89.8582 34.6491 89.8979 35.1327 90 35.6019Z" fill="black"/>
<path fill-rule="evenodd" clip-rule="evenodd" d="M87.5 34C90.5376 34 93 31.5376 93 28.5C93 25.4624 90.5376 23 87.5 23C84.4624 23 82 25.4624 82 28.5C82 31.5376 84.4624 34 87.5 34Z" fill="#FABDBD"/>
<path fill-rule="evenodd" clip-rule="evenodd" d="M79 41.8358C79 41.8358 89.316 35.1478 121.358 42.3135C153.4 49.4791 172 43.7466 172 43.7466V51.2307C172 51.2307 136.05 55.2116 122.296 51.2307C108.541 47.2498 88.9612 44.9536 82.1042 51.1177L79 41.8358Z" fill="#F86D70"/>
<path opacity="0.1" fill-rule="evenodd" clip-rule="evenodd" d="M79 41.8358C79 41.8358 89.316 35.1478 121.358 42.3135C153.4 49.4791 172 43.7466 172 43.7466V51.2307C172 51.2307 136.05 55.2116 122.296 51.2307C108.541 47.2498 88.9612 44.9536 82.1042 51.1177L79 41.8358Z" fill="black"/>
<path fill-rule="evenodd" clip-rule="evenodd" d="M79 42.7587C79 42.7587 88.9459 36.2525 120.804 43.2235C152.662 50.1944 170.845 44.6176 170.845 44.6176L171 51.2788C171 51.2788 135.568 55.1515 121.892 51.2788C108.216 47.406 88.904 44.7075 82.0864 50.7041L79 42.7587Z" fill="#F86D70"/>
<path fill-rule="evenodd" clip-rule="evenodd" d="M75 53.1642C75 53.1642 64.8043 59.8522 33.1359 52.6865C1.4674 45.5209 3.01221 51.2534 3.01221 51.2534V43.7693C3.01221 43.7693 18.6147 39.7884 32.209 43.7693C45.8032 47.7502 65.155 50.0464 71.932 43.8823L75 53.1642Z" fill="#F86D70"/>
<path opacity="0.1" fill-rule="evenodd" clip-rule="evenodd" d="M75 53.1642C75 53.1642 64.8043 59.8522 33.1359 52.6865C1.4674 45.5209 3.01221 51.2534 3.01221 51.2534V43.7693C3.01221 43.7693 18.6147 39.7884 32.209 43.7693C45.8032 47.7502 65.155 50.0464 71.932 43.8823L75 53.1642Z" fill="black"/>
<path fill-rule="evenodd" clip-rule="evenodd" d="M74 52.2413C74 52.2413 64.1857 58.7475 32.7495 51.7765C1.31318 44.8056 3.15335 50.3824 3.15335 50.3824L3 43.7212C3 43.7212 18.1814 39.8485 31.676 43.7212C45.1706 47.594 64.2271 50.2925 70.9545 44.2959L74 52.2413Z" fill="#F86D70"/>
<path fill-rule="evenodd" clip-rule="evenodd" d="M84.1518 30.0201C83.9904 28.9939 83.7419 27.7012 84.5842 27.114C84.8847 26.9283 85.232 26.8368 85.5831 26.8509C87.3276 26.8328 88.9945 28.0712 90.7051 27.7094C91.817 27.4719 92.6889 26.5918 92.9327 25.4608C93.1764 24.3299 92.7466 23.1584 91.8347 22.4679C91.1617 21.958 90.3113 21.7738 89.4883 21.6011C87.3243 21.1472 85.0651 20.6949 82.9286 21.2722C80.792 21.8495 78.8394 23.8017 79.0105 26.0417C79.0911 27.114 79.6269 28.0876 80.1869 29.0021C80.6129 29.6961 82.2718 32.9493 83.077 32.9986C84.2131 33.066 84.2631 30.6911 84.1518 30.0201Z" fill="#3F3D56"/>
<path fill-rule="evenodd" clip-rule="evenodd" d="M97.4223 59C97.4223 59 86.734 61.6154 83.1713 59C83.1713 59 81.6223 65 82.087 68.0769C82.087 68.0769 89.6772 68.5385 90.4517 69C90.4517 69 90.6066 67.7692 91.3811 68.3846C91.3811 68.3846 94.0144 65.3077 98.8164 68.0769C98.8164 68.0769 99.7458 60.8462 97.4223 59Z" fill="#2D92AF"/>
<path opacity="0.1" fill-rule="evenodd" clip-rule="evenodd" d="M89.9186 23.2139C89.8117 23.1351 89.6998 23.0637 89.5837 23C90.2143 23.7293 90.416 24.7449 90.1131 25.6661C89.8102 26.5872 89.0486 27.275 88.1135 27.4716C86.5217 27.8077 84.9705 26.6573 83.3471 26.6741C83.0204 26.6611 82.6972 26.7461 82.4176 26.9186C81.6337 27.4639 81.8635 28.6647 82.0136 29.618C82.1128 30.2413 82.0722 32.4473 81.018 32.3877H81C81.2898 32.7467 81.5601 32.9896 81.7689 32.9988C82.8201 33.0584 82.8636 30.86 82.7645 30.2291C82.6143 29.2758 82.3846 28.075 83.1684 27.5296C83.448 27.3572 83.7713 27.2722 84.098 27.2852C85.7213 27.2684 87.2726 28.4188 88.8644 28.0827C89.8991 27.8621 90.7105 27.0446 90.9373 25.994C91.1642 24.9435 90.7642 23.8553 89.9156 23.2139H89.9186Z" fill="black"/>
<g opacity="0.1">
<path fill-rule="evenodd" clip-rule="evenodd" d="M13.8969 16.2945C13.8969 16.2945 1.86494 11.7215 0.287932 19.9687C0.287932 19.9687 -0.534367 21.2531 0.609771 22.3149C0.609771 22.3149 0.855978 21.7462 2.01943 22.3353C2.43475 22.5417 2.87548 22.7033 3.33253 22.8167C3.95016 22.9707 4.60643 22.9391 5.20241 22.7265C5.20241 22.7265 9.15943 22.5331 12.4872 17.8538C12.4872 17.8538 13.913 17.0567 13.9854 16.7585L11.6006 16.904C11.6006 16.904 11.7824 18.4822 10.796 19.4291C10.796 19.4291 11.673 16.9811 11.2514 16.9113C11.1661 16.8967 9.99138 17.0378 9.99138 17.0378C9.99138 17.0378 10.2955 19.7811 8.70402 21.2007C8.70402 21.2007 10.1813 18.4095 9.53759 17.0873L7.77874 17.3942C7.77874 17.3942 8.2615 20.28 6.52035 21.96C6.52035 21.96 7.95092 18.9927 7.39897 17.4844L5.71253 17.9964C5.71253 17.9964 6.11966 20.8211 4.66333 22.2145C4.66333 22.2145 5.9346 18.6349 5.33598 18.1418C5.33598 18.1418 3.82012 18.6975 3.49506 19.0145C3.49506 19.0145 3.73644 21.0509 2.80954 21.7782C2.80954 21.7782 3.3792 19.3055 3.09759 19.2036C3.09759 19.2036 1.33552 20.4022 0.799656 21.4364C0.799656 21.4364 1.46908 19.8567 2.87552 18.9636C2.87552 18.9636 1.69437 18.7833 0.783564 19.2298C0.783564 19.2298 1.39345 18.1811 3.30196 18.6785C3.30196 18.6785 4.71644 17.7942 4.99966 17.8058C4.99966 17.8058 3.19414 17.0785 1.88908 17.1673C1.88908 17.1673 3.28747 16.44 5.44218 17.656L7.12219 17.1062C7.12219 17.1062 4.79046 16.0255 3.62058 16.0298C3.62058 16.0298 5.17506 15.4873 7.55989 17L9.28012 16.6815C9.28012 16.6815 7.34908 15.6124 6.04724 15.3636C6.04724 15.3636 7.60977 15.1411 9.77736 16.6087L10.9553 16.5185C10.9553 16.5185 9.52954 15.7607 9.09828 15.576C8.66701 15.3913 8.68632 15.2705 8.68632 15.2705C9.71278 15.4316 10.6694 15.8476 11.4493 16.472C11.4493 16.472 13.8856 16.4298 13.8969 16.2945Z" fill="#2D92AF"/>
</g>
<g opacity="0.1">
<path fill-rule="evenodd" clip-rule="evenodd" d="M12.9351 6.3213C12.9351 6.3213 8.63135 -3.0024 2.4546 1.27369C2.4546 1.27369 1.14595 1.62978 1.1573 2.90195C1.1573 2.90195 1.66649 2.6813 1.98757 3.67347C2.10762 4.02581 2.27087 4.36388 2.47406 4.68086C2.74279 5.10723 3.15203 5.43999 3.64 5.62891C3.64 5.62891 6.13081 7.64065 11.0995 6.52521C11.0995 6.52521 12.46 6.79913 12.6935 6.65152L11.1741 5.45543C11.1741 5.45543 10.2822 6.53434 9.08541 6.5876C9.08541 6.5876 11.1659 5.5376 10.9568 5.26673C10.9146 5.21195 10.1232 4.66717 10.1232 4.66717C10.1232 4.66717 8.56162 6.53586 6.71784 6.56478C6.71784 6.56478 9.37568 5.62434 9.82973 4.45717L8.58271 3.6963C8.58271 3.6963 7.03568 5.74913 4.92919 5.85565C4.92919 5.85565 7.66973 4.79043 8.2973 3.54869L6.96271 2.95826C6.96271 2.95826 5.41244 4.93652 3.65946 5.01108C3.65946 5.01108 6.69352 3.47108 6.64649 2.8426C6.64649 2.8426 5.38649 2.37087 4.98757 2.39826C4.98757 2.39826 3.84108 3.79065 2.81784 3.75108C2.81784 3.75108 4.72973 2.52 4.62433 2.30543C4.62433 2.30543 2.80811 2.10152 1.83027 2.4576C1.83027 2.4576 3.2346 1.83673 4.64379 2.04065C4.64379 2.04065 4.05189 1.29043 3.22649 1.08195C3.22649 1.08195 4.25784 0.757821 5.08487 2.09543C5.08487 2.09543 6.49244 2.30695 6.65622 2.46521C6.65622 2.46521 6.04 1.0363 5.19676 0.392604C5.19676 0.392604 6.49406 0.696952 7.01298 2.60978L8.36703 3.17434C8.36703 3.17434 7.65838 1.2463 6.94649 0.620865C6.94649 0.620865 8.22271 1.12 8.68973 3.34478L9.92054 4.07369C9.92054 4.07369 9.44216 2.36934 8.82271 1.52021C8.82271 1.52021 9.89946 2.22173 10.2659 4.30195L11.0281 4.88021C11.0281 4.88021 10.6551 3.64152 10.5141 3.29456C10.373 2.9476 10.4622 2.88369 10.4622 2.88369C10.9735 3.53725 11.2817 4.31107 11.3524 5.11913C11.3524 5.11913 12.8476 6.40043 12.9351 6.3213Z" fill="#2D92AF"/>
</g>
</svg>
