<svg width="195" height="129" viewBox="0 0 195 129" fill="none" xmlns="http://www.w3.org/2000/svg">
<path opacity="0.1" fill-rule="evenodd" clip-rule="evenodd" d="M113.296 21.268C100.795 20.8364 88.89 16.8515 77.528 12.4868C66.166 8.12206 54.8972 3.2856 42.6957 0.973597C34.839 -0.513646 25.8635 -0.722763 19.5402 3.43784C13.4555 7.4395 11.4888 14.3487 10.4326 20.7578C9.63716 25.5809 9.17002 30.6582 11.3483 35.1718C12.8614 38.3069 15.5475 40.9418 17.4059 43.9447C23.8747 54.3905 19.3049 67.2738 12.2961 77.4754C9.00923 82.26 5.19765 86.8255 2.66223 91.9196C0.126821 97.0137 -1.0461 102.851 1.17281 108.047C3.3731 113.196 8.61148 117.065 14.2882 119.786C25.8178 125.306 39.4037 126.894 52.6512 127.791C81.9777 129.773 111.46 128.915 140.864 128.055C151.746 127.737 162.676 127.414 173.379 125.751C179.325 124.828 185.462 123.362 189.778 119.823C195.257 115.331 196.615 107.724 192.943 102.089C186.786 92.6406 169.756 90.2951 165.455 80.1538C163.086 74.5729 165.519 68.3545 168.962 63.1785C176.348 52.0735 188.727 42.332 189.381 29.6377C189.827 20.92 183.877 12.1907 174.674 8.05682C165.027 3.73395 151.656 4.27765 144.539 11.4345C137.212 18.8121 124.335 21.6478 113.296 21.268Z" fill="#2D92AF"/>
<g opacity="0.5">
<path fill-rule="evenodd" clip-rule="evenodd" d="M85.5332 67.0983L80.0351 67.2153L79.1362 68.4881V72.8864L80.2585 73.6966H85.5332L86.6555 72.4237V68.2559L85.5332 67.0983Z" fill="#2D92AF"/>
<path opacity="0.2" fill-rule="evenodd" clip-rule="evenodd" d="M85.4185 67.7932C85.4185 67.7932 80.369 68.6034 79.9204 67.7932L80.0338 67.2152L85.4185 67.0932V67.7932Z" fill="white"/>
<path fill-rule="evenodd" clip-rule="evenodd" d="M85.9819 79.8305L86.8791 80.7576V85.1644L85.9819 86.0763C85.9819 86.0763 82.7284 87.2339 80.5955 86.3068L79.585 85.2661V80.8593L80.4838 79.817L85.9819 79.8305Z" fill="#2D92AF"/>
<path opacity="0.2" fill-rule="evenodd" clip-rule="evenodd" d="M85.7569 80.8729C85.7569 80.8729 81.8297 81.7983 80.4839 80.8729V79.8305H85.982L85.7569 80.8729Z" fill="white"/>
<path fill-rule="evenodd" clip-rule="evenodd" d="M83.849 73.6661V79.9271C83.8224 80.4433 83.3964 80.8402 82.8959 80.8153C82.3954 80.8402 81.9694 80.4433 81.9429 79.9271V73.6661C81.9429 73.1339 82.4358 72.722 83.0077 72.7831C83.4658 72.8121 83.8288 73.1931 83.849 73.6661Z" fill="#2D92AF"/>
<path fill-rule="evenodd" clip-rule="evenodd" d="M94.3393 67.278L88.8412 67.3932L87.9424 68.6661V73.0644L89.0647 73.8746H94.3393L95.4616 72.6017V68.4339L94.3393 67.278Z" fill="#2D92AF"/>
<path opacity="0.2" fill-rule="evenodd" clip-rule="evenodd" d="M94.2257 67.9712C94.2257 67.9712 89.1761 68.7814 88.7275 67.9712L88.8393 67.3932L94.2257 67.278V67.9712Z" fill="white"/>
<path fill-rule="evenodd" clip-rule="evenodd" d="M94.7846 80.0085L95.6818 80.9356V85.3424L94.7846 86.2593C94.7846 86.2593 91.5295 87.4169 89.3983 86.4898L88.3877 85.4491V81.0508L89.2865 80.0085H94.7846Z" fill="#2D92AF"/>
<path opacity="0.2" fill-rule="evenodd" clip-rule="evenodd" d="M94.5626 81.0508C94.5626 81.0508 90.6353 81.9763 89.2896 81.0508V80.0085H94.7844L94.5626 81.0508Z" fill="white"/>
<path fill-rule="evenodd" clip-rule="evenodd" d="M92.6485 73.8441V80.1051C92.621 80.6208 92.1956 81.0173 91.6954 80.9932C91.1946 81.0182 90.7681 80.6215 90.7407 80.1051V73.8441C90.7407 73.3119 91.2337 72.9 91.8072 72.961C92.2653 72.99 92.6283 73.3711 92.6485 73.8441Z" fill="#2D92AF"/>
<path fill-rule="evenodd" clip-rule="evenodd" d="M105.549 70.6254L101.022 70.722L100.283 71.7695V75.3898L101.206 76.0576H105.549L106.473 75.0085V71.578L105.549 70.6254Z" fill="#2D92AF"/>
<path opacity="0.2" fill-rule="evenodd" clip-rule="evenodd" d="M105.456 71.1983C105.456 71.1983 101.3 71.8644 100.93 71.1983L101.022 70.722L105.459 70.6254L105.456 71.1983Z" fill="white"/>
<path fill-rule="evenodd" clip-rule="evenodd" d="M105.917 81.1068L106.656 81.8695V85.4898L105.917 86.2525C105.917 86.2525 103.239 87.2051 101.48 86.4424L100.649 85.5847V81.9644L101.388 81.1068L105.917 81.1068Z" fill="#2D92AF"/>
<path opacity="0.2" fill-rule="evenodd" clip-rule="evenodd" d="M105.733 81.9644C105.733 81.9644 102.499 82.7271 101.392 81.9644V81.1068H105.917L105.733 81.9644Z" fill="white"/>
<path fill-rule="evenodd" clip-rule="evenodd" d="M104.162 76.0322V81.1864C104.14 81.6115 103.789 81.9381 103.377 81.9169C102.965 81.9381 102.614 81.6112 102.593 81.1864V76.0322C102.605 75.8118 102.708 75.6071 102.875 75.4686C103.041 75.3301 103.257 75.2708 103.469 75.3051C103.846 75.329 104.145 75.6426 104.162 76.0322Z" fill="#2D92AF"/>
<path fill-rule="evenodd" clip-rule="evenodd" d="M112.797 70.7729L108.27 70.8678L107.532 71.9153V75.5373L108.456 76.2034H112.797L113.72 75.1559V71.7254L112.797 70.7729Z" fill="#2D92AF"/>
<path opacity="0.2" fill-rule="evenodd" clip-rule="evenodd" d="M112.705 71.3441C112.705 71.3441 108.548 72.0119 108.178 71.3441L108.27 70.8678L112.707 70.7729L112.705 71.3441Z" fill="white"/>
<path fill-rule="evenodd" clip-rule="evenodd" d="M113.167 81.2542L113.905 82.0153V85.6356L113.167 86.3983C113.167 86.3983 110.487 87.3509 108.73 86.5898L107.9 85.7373V82.1119L108.64 81.2542L113.167 81.2542Z" fill="#2D92AF"/>
<path opacity="0.2" fill-rule="evenodd" clip-rule="evenodd" d="M112.981 82.1119C112.981 82.1119 109.749 82.8729 108.64 82.1119V81.2542H113.167L112.981 82.1119Z" fill="white"/>
<path fill-rule="evenodd" clip-rule="evenodd" d="M111.412 76.178V81.3305C111.39 81.7556 111.039 82.0822 110.627 82.061C110.215 82.0822 109.863 81.7556 109.841 81.3305V76.178C109.841 75.7407 110.252 75.4017 110.719 75.4525C111.096 75.4756 111.395 75.7887 111.412 76.178Z" fill="#2D92AF"/>
</g>
<path fill-rule="evenodd" clip-rule="evenodd" d="M176.829 89.7396C176.467 89.09 175.788 88.6625 175.075 88.4655C174.353 88.2937 173.606 88.2474 172.869 88.3286C171.676 88.4125 170.494 88.6054 169.338 88.9047C168.621 89.0917 167.877 89.3422 167.393 89.9066C167.38 89.9233 167.364 89.9433 167.349 89.96C166.609 90.152 165.873 90.4476 165.156 90.688C164.437 90.9243 163.705 91.1211 162.964 91.2775C163.934 90.7314 164.878 90.1537 165.678 89.3822C166.056 89.0191 166.395 88.6185 166.69 88.1866C167.238 88.342 167.813 88.3801 168.377 88.2985C169.519 88.1048 170.441 87.2966 171.3 86.5085L174.061 83.9937C174.501 83.5929 174.948 83.1822 175.242 82.6579C175.638 81.9281 175.674 81.0598 175.684 80.2266C175.697 79.0811 175.684 77.9356 175.65 76.7918L176.524 77.4597C176.391 76.0489 176.656 74.6292 177.29 73.3586C177.593 72.7524 177.991 72.1496 178 71.47C178.013 70.4214 177.102 69.5965 176.17 69.1323C175.237 68.6681 174.188 68.3708 173.424 67.6578C172.287 66.5975 172.074 64.9059 171.512 63.4532C171.179 62.6578 170.784 61.889 170.332 61.1539L169.239 59.2669C168.689 58.2726 168.076 57.3139 167.403 56.3965C166.266 54.912 164.834 53.6881 163.412 52.4774L156.017 46.1705C154.219 44.6359 152.414 43.0997 150.469 41.7572C146.524 39.0337 142.072 37.1635 137.65 35.3116C136.536 34.8441 135.377 34.3699 134.173 34.4266C133.266 34.4848 132.406 34.849 131.737 35.4586C131.103 35.268 130.483 35.0348 129.882 34.7606L129.835 34.7389C129.848 34.6404 129.863 34.5435 129.873 34.445C129.889 34.3148 129.897 34.1845 129.907 34.0526C130.24 34.0018 130.563 33.8974 130.862 33.7437C131.014 33.6727 131.148 33.5695 131.255 33.4414C131.391 33.2185 131.46 32.9621 131.456 32.7017C131.59 30.9567 131.725 29.1951 131.58 27.4585C131.435 25.7218 130.995 23.9635 130.062 22.4874C129.774 22.0299 129.413 21.584 128.912 21.3853C128.237 21.1181 127.456 21.3669 126.736 21.2467C125.489 21.038 124.712 19.8307 123.809 18.9407C121.527 16.6881 117.624 16.3491 114.989 18.1726C113.99 18.8655 113.191 19.8057 112.3 20.6339C111.409 21.4621 110.365 22.2119 109.163 22.3738C108.941 22.3831 108.724 22.4401 108.527 22.5408C108.28 22.6945 108.169 22.99 108.075 23.2639C107.737 24.209 107.413 25.1792 107.31 26.1677C107.299 26.1076 107.289 26.0475 107.278 25.9873C107.233 26.3535 107.223 26.7231 107.25 27.0911C107.283 27.5601 107.421 28.016 107.651 28.427C107.843 28.8176 108.171 29.127 108.574 29.2986C108.859 29.3985 109.16 29.4466 109.463 29.4405H109.596C109.547 29.5691 109.5 29.6977 109.456 29.8279C109.081 30.9314 108.89 32.0883 108.891 33.2528C108.891 39.0971 113.602 43.8328 119.418 43.8328C120.118 43.8294 120.816 43.7567 121.502 43.6157C121.729 43.6875 121.957 43.761 122.176 43.8394C122.625 43.9863 123.066 44.158 123.495 44.3537C123.678 44.4389 124.415 44.8647 125.305 45.4141L125.245 45.5393C123.476 47.175 122.735 49.6279 123.307 51.9565C123.951 54.4395 126.064 56.5685 125.852 59.125C125.822 59.489 125.744 59.8581 125.806 60.2187C125.892 60.7197 126.235 61.1271 126.577 61.4978C126.874 61.8218 127.183 62.1357 127.497 62.443C127.471 64.0744 127.328 65.7041 127.173 67.3305C127.159 67.4725 127.156 67.6161 127.154 67.7613C127.163 68.4645 127.421 69.1422 127.883 69.6766C128.372 70.2661 128.568 71.1494 128.475 71.9376C128.342 73.0664 127.78 74.09 127.404 75.1603C125.707 79.9744 127.792 85.403 126.618 90.3741C126.329 91.5981 125.844 92.7887 125.774 94.0477C125.736 94.8342 125.86 95.6591 125.555 96.3855C125.29 97.0167 124.739 97.4725 124.217 97.915C123.481 98.5395 122.763 99.1852 122.065 99.852C121.01 99.2808 119.92 98.7733 118.803 98.3325C118.621 98.2598 118.435 98.1963 118.246 98.1421C116.927 96.9198 115.264 96.1383 113.702 95.24C112.406 94.4969 111.172 93.662 109.93 92.8271C108.749 92.0256 107.543 91.2174 106.545 90.1871C106.039 89.6661 105.588 89.0917 105.043 88.6158C104.565 88.2211 104.057 87.8617 103.525 87.5404C101.132 86.0056 98.8503 84.3066 96.697 82.4558C95.0558 81.0465 93.7131 79.2314 91.9588 77.9673C90.8843 77.1925 89.6343 76.4862 88.3186 76.6315C87.8997 76.6802 87.4933 76.8042 87.1193 76.9971C86.7706 76.8508 86.398 76.7682 86.0195 76.7533C84.9501 76.72 83.9683 77.2944 83.0507 77.8471C77.6529 81.0943 72.1707 84.1969 66.6042 87.1547C65.4808 87.7525 64.3507 88.3453 63.2778 89.0299C61.1846 90.3702 59.3299 92.0443 57.789 93.9843C57.5056 94.3399 57.148 94.744 56.6976 94.6906C56.5743 94.6719 56.4557 94.63 56.3484 94.567C55.6551 94.1947 55.2301 93.475 54.8303 92.792C54.5401 92.2911 54.2264 91.7684 53.8013 91.3877C53.7103 91.1507 53.589 90.9262 53.4403 90.7198C54.0392 89.257 54.5553 87.7592 55.0344 86.2513C55.284 85.4598 55.5252 84.6633 55.8441 83.8952C56.6301 81.9949 57.8834 80.2733 58.327 78.2629C58.4333 77.777 58.4957 77.2777 58.5784 76.7867C63.428 75.8416 67.0884 71.5535 67.0884 66.4038C67.0884 60.5594 62.3754 55.8238 56.5609 55.8238C50.7465 55.8238 46.0352 60.5594 46.0352 66.4038C46.0246 70.0188 47.8747 73.3902 50.9439 75.349C50.9439 75.3691 50.9439 75.3891 50.9439 75.4075C50.9337 75.7433 50.9005 76.078 50.8443 76.4094C50.6503 77.5281 50.1696 78.5801 49.6855 79.6004C49.365 80.2834 49.0445 80.9697 48.7122 81.6509C48.5527 81.6192 48.398 81.5676 48.2517 81.4973C47.9666 81.3404 47.8418 80.9964 47.7338 80.6925C47.2561 79.2999 46.6713 77.9456 45.9846 76.6415C45.7168 76.0872 45.3765 75.5701 44.9725 75.1036C44.2607 74.3321 43.2857 73.8746 42.3428 73.412C42.1741 73.3319 42.0172 73.245 41.8553 73.1682C41.7152 73.0652 41.5687 72.9709 41.4167 72.886C40.6323 72.4469 39.762 72.1313 39.1075 71.5168C38.6166 71.0559 38.2792 70.4564 37.8204 69.9672C37.0563 69.154 36.002 68.6898 34.9781 68.2473C34.4451 68.0168 33.8851 67.7814 33.3031 67.8131C33.2211 67.8171 33.1395 67.826 33.0585 67.8398C32.9186 67.8635 32.7801 67.8947 32.6436 67.9333C32.5108 67.8635 32.3853 67.7807 32.2691 67.6862C31.6433 67.2086 31.4004 66.3888 31.1963 65.6256C30.8589 64.3499 30.503 63.0291 30.7122 61.7233C30.7486 61.498 30.7982 61.2749 30.8606 61.0553C30.9129 60.9702 30.9635 60.8883 31.0091 60.7965C33.7339 59.9858 35.8946 57.9209 36.8091 55.2537C37.7236 52.5866 37.2791 49.6463 35.6158 47.3611C35.5297 47.2442 35.4471 47.1307 35.3509 47.0171L35.4521 46.962C36.385 46.3976 36.5975 45.0484 36.1657 44.0432C35.7338 43.0379 34.8162 42.3282 33.8868 41.7705C33.7518 41.6887 33.6152 41.6119 33.4769 41.5351L33.3588 41.4716C33.2542 41.4149 33.1513 41.3598 33.0467 41.3046L32.9236 41.2429C32.8005 41.1811 32.6773 41.1226 32.5542 41.0659L32.4985 41.0391C32.345 40.9707 32.1915 40.9039 32.0363 40.8404C31.8862 40.7787 31.7361 40.7219 31.5843 40.6735L31.5219 40.6501C31.3785 40.5983 31.2334 40.5499 31.0883 40.5031L31.0563 40.4931C29.9953 40.1517 28.8892 39.9671 27.7738 39.9454C26.6818 39.9519 25.5936 40.0711 24.5266 40.3011C23.4879 40.4873 22.4706 40.7765 21.4904 41.1644C19.8703 41.844 18.4419 42.9044 17.329 44.2536C17.0944 44.2712 16.8619 44.3092 16.634 44.3671C15.7215 44.5959 14.9 45.1002 14.1493 45.6712C13.5206 46.1288 12.9636 46.6757 12.4963 47.2943C11.9459 48.087 11.5663 48.9834 11.3813 49.9276C10.742 52.8882 11.528 55.939 12.1066 58.9146C12.6852 61.8902 13.0192 65.133 11.6006 67.8031C11.0658 68.805 10.3068 69.675 9.74507 70.6585C9.18336 71.642 8.79371 72.8293 9.11758 73.9197C9.51061 75.2438 10.8044 76.0771 11.4791 77.2793C12.2685 78.6803 12.0509 80.5622 11.0186 81.7879C10.9731 81.8413 10.9275 81.8947 10.8786 81.9548C10.8297 82.015 10.7605 82.0784 10.6964 82.1352C11.7608 82.5059 12.9466 82.1068 13.9014 81.5124C14.6649 81.0659 15.3125 80.4489 15.7923 79.7106C16.9984 77.7502 16.4569 75.2154 16.882 72.9495C17.4403 69.9822 19.6939 67.3355 19.3835 64.3315C19.1744 62.316 17.8452 60.6312 16.801 58.8979C16.107 57.7346 15.5252 56.5091 15.0636 55.2377C15.045 55.1842 15.0265 55.1291 15.0063 55.0707C14.7009 54.2107 14.4665 53.299 14.6233 52.399C14.6768 52.1074 14.7652 51.8232 14.8865 51.5524C14.8865 51.5841 14.8865 51.6175 14.8865 51.6492C14.907 52.5197 15.1025 53.3775 15.4617 54.1723C16.516 56.3431 19.0529 57.345 20.6638 59.105C20.7313 59.1784 20.7954 59.2536 20.8595 59.3304C20.8781 59.3504 20.8949 59.3721 20.9118 59.3939L21.0484 59.5608L21.1058 59.6393C21.1479 59.6978 21.1901 59.7562 21.2289 59.8163L21.2812 59.8915C21.3352 59.9766 21.3892 60.0584 21.4398 60.1503C21.8497 59.7011 22.2731 59.2285 22.4384 58.6474C22.4535 58.5973 22.4637 58.5456 22.4738 58.4938C22.4873 58.5072 22.4991 58.5222 22.5126 58.5372C22.5446 58.7159 22.5699 58.8946 22.5935 59.0749C22.5935 59.3326 22.6212 59.5895 22.6762 59.8414C22.8044 61.4444 22.7015 63.0908 22.5935 64.6989C22.5362 65.5588 22.7622 66.8363 22.209 67.4775L22.1921 67.4958C22.1596 67.5332 22.1241 67.5679 22.0858 67.5994C21.9914 67.6962 21.8952 67.7914 21.8058 67.8916C19.9503 69.9622 19.1069 72.9011 19.1508 75.7164C19.1946 78.9208 20.2286 82.025 21.401 85.0056C21.8104 86.0938 22.2928 87.1537 22.8449 88.1783C23.1299 88.7315 23.5068 89.2333 23.9599 89.6628C24.4339 90.0786 25.0108 90.3524 25.5792 90.6196C25.7209 90.6864 25.8643 90.7515 26.006 90.82L26.3686 90.9869L29.13 92.2861C29.636 93.0224 30.1252 93.7789 30.6194 94.537C30.6903 94.6439 30.7594 94.7541 30.832 94.8609C31.3717 95.6958 31.9149 96.5308 32.4682 97.3423L37.1221 104.165C37.4594 104.666 37.812 105.167 38.286 105.538C38.4208 105.643 38.5667 105.733 38.7212 105.807C38.7996 105.844 38.8802 105.877 38.9624 105.905C38.8602 106.057 38.8165 106.24 38.8393 106.421C38.9015 106.599 39.0198 106.751 39.1766 106.857C40.2292 107.719 41.3982 108.627 41.7288 109.951C41.9632 110.895 41.7288 111.905 41.9396 112.853C42.3259 114.563 44.0347 115.6 45.6506 116.258C49.2722 117.731 53.2953 118.297 57.1429 117.612C60.9905 116.928 64.6459 114.952 67.1373 111.935C67.9031 111.003 68.5559 109.986 69.2829 109.024C69.789 108.346 70.3456 107.7 70.9208 107.077C71.5415 106.796 72.1398 106.469 72.7105 106.099C73.9267 105.299 74.9742 104.272 76.0842 103.32C76.9124 102.606 77.7794 101.931 78.5402 101.149C79.2232 100.408 79.8614 99.6276 80.4513 98.8117C81.8008 97.0417 83.1946 95.3068 84.6329 93.6069C85.4021 92.6968 86.2169 91.7701 87.2914 91.2691L87.3403 91.2491C87.4685 91.9972 88.0673 92.6317 88.4873 93.2779C90.2247 95.9497 92.0431 98.6999 94.7285 100.403C96.1994 101.335 97.8626 101.906 99.5225 102.427C103.739 103.746 108.024 104.781 112.312 105.818C112.454 105.551 112.592 105.304 112.747 105.064C112.814 105.133 112.875 105.207 112.933 105.284C112.951 105.311 112.966 105.339 112.985 105.366C112.954 105.372 112.924 105.38 112.894 105.391C112.619 105.518 112.402 105.743 112.288 106.022C111.826 106.939 111.782 108.002 111.76 109.028C111.745 110.03 111.76 111.032 111.76 112.033C111.736 112.407 111.793 112.782 111.929 113.132C112.256 113.8 113.088 114.049 113.832 114.134C115.124 114.276 116.426 114.156 117.711 113.984C117.786 114.284 117.907 114.571 118.071 114.834C118.793 116.003 120.039 116.774 121.336 117.227C122.634 117.679 124.008 117.859 125.356 118.125C127.75 118.596 130.199 119.349 132.579 118.818C133.529 118.606 134.434 118.195 135.384 118.015C137.558 117.607 139.812 118.432 142.002 118.102C143.059 117.935 144.059 117.517 145.018 117.038C145.501 116.828 145.939 116.529 146.308 116.156C146.659 115.765 146.87 115.211 146.725 114.705C146.642 114.415 146.453 114.167 146.327 113.894C146.157 113.456 146.061 112.993 146.041 112.524C145.865 110.751 145.562 108.992 145.134 107.261C145.122 107.213 145.109 107.163 145.095 107.112C146.75 106.463 148.233 105.443 149.697 104.427L152.846 102.247C153.858 101.54 154.896 100.831 156.032 100.336C157.777 99.5782 159.708 99.3611 161.609 99.3628C162.387 99.3628 163.166 99.4012 163.94 99.4713C163.842 99.5779 163.767 99.7043 163.723 99.842C163.567 100.32 163.814 100.844 164.18 101.193C164.546 101.542 165.023 101.739 165.453 101.981C166.642 102.644 167.631 103.606 168.321 104.771C168.753 105.504 169.066 106.394 168.793 107.201C168.456 108.213 167.253 108.911 167.322 109.976C167.363 110.604 167.874 111.123 168.456 111.355C169.038 111.588 169.684 111.584 170.311 111.566C171.339 111.534 172.396 111.456 173.316 110.993C173.935 110.681 174.459 110.21 174.974 109.744C175.443 109.318 175.922 108.876 176.188 108.301C176.438 107.76 176.477 107.147 176.488 106.553C176.539 103.754 176.052 100.917 176.613 98.1755C176.782 97.3406 177.052 96.5241 177.195 95.6825C177.421 94.3466 177.335 92.9974 177.249 91.6549C177.207 90.9936 177.156 90.3123 176.829 89.7396Z" fill="url(#paint0_linear)"/>
<path opacity="0.06" fill-rule="evenodd" clip-rule="evenodd" d="M141 50.1902C140.346 50.6347 140.118 51.4936 140.035 52.2853C139.68 55.652 141.058 58.9852 140.967 62.3686C140.893 65.061 139.898 67.6292 138.916 70.1337C137.242 74.4062 136.37 79.0461 136.032 83.6273C135.694 88.2085 135.2 92.9792 132.76 96.8542C132.206 97.7315 131.561 98.5468 131.018 99.4291C130.449 100.352 129.998 101.341 129.495 102.301C128.014 105.135 126.106 107.719 123.837 109.962C123.171 110.616 122.466 111.25 121.617 111.628C120.512 112.111 119.26 112.124 118.145 111.665C117.007 111.19 116.048 110.12 116.002 108.878C115.96 107.768 116.618 106.766 117.277 105.877C119.51 102.865 122.079 100.121 124.932 97.698C125.45 97.2585 125.995 96.8039 126.263 96.1765C126.565 95.4535 126.441 94.6332 126.48 93.8498C126.541 92.6001 127.024 91.4141 127.312 90.1963C128.477 85.2494 126.406 79.8479 128.091 75.0554C128.465 73.9902 129.021 72.972 129.152 71.8497C129.246 71.0647 129.053 70.1874 128.565 69.5986C128.108 69.0695 127.853 68.3942 127.844 67.693C127.844 67.5487 127.844 67.4061 127.861 67.2652C128.064 65.0694 128.265 62.8635 128.156 60.661C128.046 58.4585 127.611 56.2442 126.603 54.2866C126.08 53.2717 125.405 52.3222 125.082 51.2269C124.563 49.4538 125.042 47.5364 125.816 45.8589C126.42 44.5471 127.225 43.2974 128.35 42.3983C130.441 40.7292 133.569 40.5363 135.858 41.9169C137.545 42.9334 138.7 44.6428 139.637 46.3857C140.309 47.6589 141.01 48.7375 141 50.1902Z" fill="black"/>
<path fill-rule="evenodd" clip-rule="evenodd" d="M134.97 37.1822C134.661 38.0589 134.353 38.9355 134.047 39.8121C133.844 40.3876 133.643 40.968 133.433 41.5434C132.466 44.1954 131.385 46.805 129.694 49C129.947 48.6717 127.567 47.0199 125.812 45.8928C124.957 45.3394 124.248 44.9129 124.074 44.8283C123.66 44.6321 123.237 44.4592 122.806 44.3105C122.137 44.0735 121.461 43.8687 120.792 43.6132C119.245 43.0259 120.326 42.1442 120.989 41.1965C123.156 38.0927 123.566 33.8516 126.027 31C126.929 32.8007 128.356 34.2507 130.1 35.1378C130.133 35.1564 130.169 35.1734 130.204 35.1886C131.666 35.9062 133.28 36.2159 134.791 36.8167C134.873 36.8488 134.968 36.8945 134.996 36.9859C135.006 37.0526 134.997 37.1209 134.97 37.1822Z" fill="#A1616A"/>
<path fill-rule="evenodd" clip-rule="evenodd" d="M131.416 100.048C129.876 102.095 129.571 104.729 130.605 107.033C130.734 107.35 130.934 107.637 131.193 107.876C131.522 108.115 131.905 108.281 132.314 108.361C135.777 109.276 139.473 109.096 143.019 108.523C144.221 108.352 145.402 108.073 146.545 107.69C148.301 107.067 149.868 106.072 151.417 105.079L154.691 102.985C155.751 102.307 156.82 101.626 158.004 101.15C159.817 100.424 161.826 100.215 163.801 100.217C165.498 100.219 167.191 100.369 168.858 100.665C169.968 100.864 171.299 101.069 172.08 100.317C172.526 99.8916 172.659 99.2686 172.746 98.6813C173.091 96.3962 173.085 94.0772 172.727 91.7937C172.718 91.6016 172.643 91.4172 172.512 91.2679C172.389 91.171 172.24 91.1077 172.08 91.0851C170.537 90.7615 168.989 91.4329 167.489 91.894C164.373 92.8551 161.027 92.97 157.857 93.7612C154.531 94.5912 151.406 96.1622 147.968 96.4809C146.329 96.633 144.683 96.5003 143.04 96.5343C141.516 96.5651 140.095 97.0537 138.603 97.1119C135.726 97.23 133.224 97.696 131.416 100.048Z" fill="#A1616A"/>
<path opacity="0.06" fill-rule="evenodd" clip-rule="evenodd" d="M131.416 100.048C129.876 102.095 129.571 104.729 130.605 107.033C130.734 107.35 130.934 107.637 131.193 107.876C131.522 108.115 131.905 108.281 132.314 108.361C135.777 109.276 139.473 109.096 143.019 108.523C144.221 108.352 145.402 108.073 146.545 107.69C148.301 107.067 149.868 106.072 151.417 105.079L154.691 102.985C155.751 102.307 156.82 101.626 158.004 101.15C159.817 100.424 161.826 100.215 163.801 100.217C165.498 100.219 167.191 100.369 168.858 100.665C169.968 100.864 171.299 101.069 172.08 100.317C172.526 99.8916 172.659 99.2686 172.746 98.6813C173.091 96.3962 173.085 94.0772 172.727 91.7937C172.718 91.6016 172.643 91.4172 172.512 91.2679C172.389 91.171 172.24 91.1077 172.08 91.0851C170.537 90.7615 168.989 91.4329 167.489 91.894C164.373 92.8551 161.027 92.97 157.857 93.7612C154.531 94.5912 151.406 96.1622 147.968 96.4809C146.329 96.633 144.683 96.5003 143.04 96.5343C141.516 96.5651 140.095 97.0537 138.603 97.1119C135.726 97.23 133.224 97.696 131.416 100.048Z" fill="black"/>
<path fill-rule="evenodd" clip-rule="evenodd" d="M133.096 95.3407C133.017 95.7112 132.946 96.1036 133.057 96.4658C133.195 96.8219 133.427 97.1338 133.729 97.3678C136.583 99.9198 140.662 100.448 144.475 100.862C145.508 100.974 146.559 101.087 147.581 100.901C148.513 100.733 149.383 100.322 150.241 99.9165C152.088 99.0429 153.945 98.1593 155.528 96.8749C157.082 95.6173 158.327 94.0077 159.936 92.8222C161.764 91.4808 164.013 90.7129 165.645 89.1334C166.825 87.9966 167.609 86.5123 167.883 84.8979C168.068 83.7963 168.007 82.6712 167.883 81.5612C167.75 80.2852 167.537 78.9875 166.929 77.8573C166.226 76.5495 165.044 75.5619 163.796 74.7503C161.157 73.0367 158.049 71.9737 154.897 72.0005C150.531 72.0391 146.502 74.576 143.369 77.4247C140.054 80.442 137.372 84.0853 135.477 88.1441C134.407 90.4428 133.608 92.8578 133.096 95.3407Z" fill="#464353"/>
<path opacity="0.06" fill-rule="evenodd" clip-rule="evenodd" d="M133.096 95.3407C133.017 95.7112 132.946 96.1036 133.057 96.4658C133.195 96.8219 133.427 97.1338 133.729 97.3678C136.583 99.9198 140.662 100.448 144.475 100.862C145.508 100.974 146.559 101.087 147.581 100.901C148.513 100.733 149.383 100.322 150.241 99.9165C152.088 99.0429 153.945 98.1593 155.528 96.8749C157.082 95.6173 158.327 94.0077 159.936 92.8222C161.764 91.4808 164.013 90.7129 165.645 89.1334C166.825 87.9966 167.609 86.5123 167.883 84.8979C168.068 83.7963 168.007 82.6712 167.883 81.5612C167.75 80.2852 167.537 78.9875 166.929 77.8573C166.226 76.5495 165.044 75.5619 163.796 74.7503C161.157 73.0367 158.049 71.9737 154.897 72.0005C150.531 72.0391 146.502 74.576 143.369 77.4247C140.054 80.442 137.372 84.0853 135.477 88.1441C134.407 90.4428 133.608 92.8578 133.096 95.3407Z" fill="black"/>
<path fill-rule="evenodd" clip-rule="evenodd" d="M141 50.1902C140.346 50.6347 140.118 51.4936 140.035 52.2853C139.68 55.652 141.058 58.9852 140.967 62.3686C140.893 65.061 139.898 67.6292 138.916 70.1337C137.242 74.4062 136.37 79.0461 136.032 83.6273C135.694 88.2085 135.2 92.9792 132.76 96.8542C132.206 97.7315 131.561 98.5468 131.018 99.4291C130.449 100.352 129.998 101.341 129.495 102.301C128.014 105.135 126.106 107.719 123.837 109.962C123.171 110.616 122.466 111.25 121.617 111.628C120.512 112.111 119.26 112.124 118.145 111.665C117.007 111.19 116.048 110.12 116.002 108.878C115.96 107.768 116.618 106.766 117.277 105.877C119.51 102.865 122.079 100.121 124.932 97.698C125.45 97.2585 125.995 96.8039 126.263 96.1765C126.565 95.4535 126.441 94.6332 126.48 93.8498C126.541 92.6001 127.024 91.4141 127.312 90.1963C128.477 85.2494 126.406 79.8479 128.091 75.0554C128.465 73.9902 129.021 72.972 129.152 71.8497C129.246 71.0647 129.053 70.1874 128.565 69.5986C128.108 69.0695 127.853 68.3942 127.844 67.693C127.844 67.5487 127.844 67.4061 127.861 67.2652C128.064 65.0694 128.265 62.8635 128.156 60.661C128.046 58.4585 127.611 56.2442 126.603 54.2866C126.08 53.2717 125.405 52.3222 125.082 51.2269C124.563 49.4538 125.042 47.5364 125.816 45.8589C126.42 44.5471 127.225 43.2974 128.35 42.3983C130.441 40.7292 133.569 40.5363 135.858 41.9169C137.545 42.9334 138.7 44.6428 139.637 46.3857C140.309 47.6589 141.01 48.7375 141 50.1902Z" fill="#A1616A"/>
<path fill-rule="evenodd" clip-rule="evenodd" d="M132 62C135.866 62 139 57.5228 139 52C139 46.4772 135.866 42 132 42C128.134 42 125 46.4772 125 52C125 57.5228 128.134 62 132 62Z" fill="#A1616A"/>
<path fill-rule="evenodd" clip-rule="evenodd" d="M116.423 103.597C116.805 104.122 116.928 104.784 116.76 105.406C117.362 105.828 118.094 106.035 118.833 105.995C119.568 105.956 120.289 105.794 120.967 105.516C121.557 105.307 122.115 105.021 122.627 104.668C123.508 104.033 124.145 103.125 124.651 102.184C124.936 101.664 125.179 100.992 124.82 100.525C124.679 100.366 124.507 100.237 124.314 100.143C123.014 99.4202 121.661 98.7929 120.266 98.2664C119.882 98.0942 119.466 98.0034 119.044 98C118.526 98.028 118.056 98.3043 117.644 98.6135C116.719 99.3149 115.973 100.216 115.465 101.245C115.306 101.574 114.827 102.355 115.065 102.694C115.173 102.85 115.571 102.905 115.74 103.003C116.008 103.152 116.241 103.354 116.423 103.597Z" fill="#FBBEBE"/>
<path opacity="0.03" fill-rule="evenodd" clip-rule="evenodd" d="M116.423 103.597C116.805 104.122 116.928 104.784 116.76 105.406C117.362 105.828 118.094 106.035 118.833 105.995C119.568 105.956 120.289 105.794 120.967 105.516C121.557 105.307 122.115 105.021 122.627 104.668C123.508 104.033 124.145 103.125 124.651 102.184C124.936 101.664 125.179 100.992 124.82 100.525C124.679 100.366 124.507 100.237 124.314 100.143C123.014 99.4202 121.661 98.7929 120.266 98.2664C119.882 98.0942 119.466 98.0034 119.044 98C118.526 98.028 118.056 98.3043 117.644 98.6135C116.719 99.3149 115.973 100.216 115.465 101.245C115.306 101.574 114.827 102.355 115.065 102.694C115.173 102.85 115.571 102.905 115.74 103.003C116.008 103.152 116.241 103.354 116.423 103.597Z" fill="black"/>
<path fill-rule="evenodd" clip-rule="evenodd" d="M123.042 99.003C125.939 99.5362 128.603 100.925 131.45 101.674C132.602 101.977 133.788 102.184 134.889 102.629C135.99 103.074 137.027 103.834 137.501 104.918C137.702 105.438 137.835 105.981 137.897 106.535C138.02 107.317 138.121 108.192 137.652 108.834C137.157 109.513 136.223 109.663 135.385 109.763C132.376 110.118 129.366 110.474 126.346 110.726C125.735 110.762 125.126 110.834 124.523 110.941C124.027 111.04 123.542 111.189 123.049 111.305C122.41 111.453 121.762 111.546 121.115 111.644C119.459 111.88 117.785 112.117 116.122 111.936C115.364 111.853 114.515 111.61 114.181 110.931C114.043 110.579 113.984 110.201 114.01 109.824C114.001 108.815 113.993 107.808 114.01 106.801C114.025 105.767 114.077 104.694 114.549 103.772C114.666 103.489 114.887 103.262 115.167 103.135C115.339 103.086 115.52 103.07 115.698 103.087C116.588 103.118 117.509 103.155 118.305 103.549C118.937 103.86 119.45 104.378 120.094 104.66C121.313 105.196 122.784 104.811 124.018 105.315C124.306 104.436 124.241 103.546 124.027 102.644C123.813 101.742 123.513 100.857 123.422 99.937C123.419 99.7348 123.379 99.5347 123.306 99.346C123.213 99.1575 123.244 98.9741 123.042 99.003Z" fill="#464353"/>
<path opacity="0.06" fill-rule="evenodd" clip-rule="evenodd" d="M123.042 99.003C125.939 99.5362 128.603 100.925 131.45 101.674C132.602 101.977 133.788 102.184 134.889 102.629C135.99 103.074 137.027 103.834 137.501 104.918C137.702 105.438 137.835 105.981 137.897 106.535C138.02 107.317 138.121 108.192 137.652 108.834C137.157 109.513 136.223 109.663 135.385 109.763C132.376 110.118 129.366 110.474 126.346 110.726C125.735 110.762 125.126 110.834 124.523 110.941C124.027 111.04 123.542 111.189 123.049 111.305C122.41 111.453 121.762 111.546 121.115 111.644C119.459 111.88 117.785 112.117 116.122 111.936C115.364 111.853 114.515 111.61 114.181 110.931C114.043 110.579 113.984 110.201 114.01 109.824C114.001 108.815 113.993 107.808 114.01 106.801C114.025 105.767 114.077 104.694 114.549 103.772C114.666 103.489 114.887 103.262 115.167 103.135C115.339 103.086 115.52 103.07 115.698 103.087C116.588 103.118 117.509 103.155 118.305 103.549C118.937 103.86 119.45 104.378 120.094 104.66C121.313 105.196 122.784 104.811 124.018 105.315C124.306 104.436 124.241 103.546 124.027 102.644C123.813 101.742 123.513 100.857 123.422 99.937C123.419 99.7348 123.379 99.5347 123.306 99.346C123.213 99.1575 123.244 98.9741 123.042 99.003Z" fill="black"/>
<path fill-rule="evenodd" clip-rule="evenodd" d="M27.469 71.1867C26.8859 71.0089 26.3233 71.5062 25.9967 72.0102C24.6391 74.0654 24.7502 76.8091 25.836 79.0093C26.0943 79.5673 26.4507 80.0782 26.8893 80.5195C27.4775 81.0778 28.235 81.4352 28.9412 81.837C30.9006 82.9519 32.5799 84.4704 33.8588 86.2835C34.6949 87.4709 35.3532 88.7769 36.3022 89.8819C38.6379 92.6025 42.4766 93.8344 44.7422 96.6011C45.2842 97.2599 45.7425 98.024 46.4657 98.5033C47.3413 99.083 48.474 99.161 49.4262 98.7071C50.3785 98.2531 51.001 97.3383 51.0534 96.3162C51.9339 95.0695 52.6538 93.6928 53.3395 92.3358C54.3539 90.2645 55.2111 88.1251 55.9043 85.9344C56.1591 85.1604 56.4053 84.3814 56.7302 83.6288C57.5321 81.7711 58.8094 80.0897 59.2608 78.1266C59.442 77.3394 59.4865 76.5209 59.7498 75.7568C59.9856 75.0709 60.3891 74.4496 60.9262 73.9452C62.7045 72.2802 63.662 69.8544 65.0761 67.8946C65.6506 67.1025 66.2474 66.312 66.627 65.4161C67.0065 64.5202 67.1519 63.4942 66.7979 62.5885C66.444 61.6827 65.519 60.9515 64.517 61.0025C64.0685 61.0473 63.6335 61.176 63.2363 61.3813C61.8554 62.0124 60.5887 62.8532 59.4848 63.8714C59.002 64.3188 58.5454 64.7916 58.1169 65.2877C56.0274 67.6921 54.3927 70.6103 54.2491 73.7427C54.2012 74.8164 54.2902 76.0071 53.5823 76.8388C51.6296 79.1361 51.0021 82.2948 49.3366 84.7948C48.5655 85.9476 47.6815 87.1415 46.3631 87.6669C46.1684 87.7571 45.953 87.7979 45.7373 87.7855C45.2107 87.7278 44.908 87.1942 44.6858 86.7298C43.8171 84.9185 42.8118 83.1709 41.6781 81.501C41.2301 80.8423 40.7359 80.1671 40.0195 79.7801C39.5305 79.5182 38.9628 79.4013 38.5028 79.095C37.8616 78.6684 37.5265 77.9422 37.193 77.262C36.1124 75.0653 34.7442 73.0109 33.1218 71.1488C32.3797 70.2974 31.4017 69.418 30.2561 69.5448C29.1652 69.6683 28.4983 70.7734 27.469 71.1867Z" fill="#FBBEBE"/>
<path opacity="0.03" fill-rule="evenodd" clip-rule="evenodd" d="M27.469 71.1867C26.8859 71.0089 26.3233 71.5062 25.9967 72.0102C24.6391 74.0654 24.7502 76.8091 25.836 79.0093C26.0943 79.5673 26.4507 80.0782 26.8893 80.5195C27.4775 81.0778 28.235 81.4352 28.9412 81.837C30.9006 82.9519 32.5799 84.4704 33.8588 86.2835C34.6949 87.4709 35.3532 88.7769 36.3022 89.8819C38.6379 92.6025 42.4766 93.8344 44.7422 96.6011C45.2842 97.2599 45.7425 98.024 46.4657 98.5033C47.3413 99.083 48.474 99.161 49.4262 98.7071C50.3785 98.2531 51.001 97.3383 51.0534 96.3162C51.9339 95.0695 52.6538 93.6928 53.3395 92.3358C54.3539 90.2645 55.2111 88.1251 55.9043 85.9344C56.1591 85.1604 56.4053 84.3814 56.7302 83.6288C57.5321 81.7711 58.8094 80.0897 59.2608 78.1266C59.442 77.3394 59.4865 76.5209 59.7498 75.7568C59.9856 75.0709 60.3891 74.4496 60.9262 73.9452C62.7045 72.2802 63.662 69.8544 65.0761 67.8946C65.6506 67.1025 66.2474 66.312 66.627 65.4161C67.0065 64.5202 67.1519 63.4942 66.7979 62.5885C66.444 61.6827 65.519 60.9515 64.517 61.0025C64.0685 61.0473 63.6335 61.176 63.2363 61.3813C61.8554 62.0124 60.5887 62.8532 59.4848 63.8714C59.002 64.3188 58.5454 64.7916 58.1169 65.2877C56.0274 67.6921 54.3927 70.6103 54.2491 73.7427C54.2012 74.8164 54.2902 76.0071 53.5823 76.8388C51.6296 79.1361 51.0021 82.2948 49.3366 84.7948C48.5655 85.9476 47.6815 87.1415 46.3631 87.6669C46.1684 87.7571 45.953 87.7979 45.7373 87.7855C45.2107 87.7278 44.908 87.1942 44.6858 86.7298C43.8171 84.9185 42.8118 83.1709 41.6781 81.501C41.2301 80.8423 40.7359 80.1671 40.0195 79.7801C39.5305 79.5182 38.9628 79.4013 38.5028 79.095C37.8616 78.6684 37.5265 77.9422 37.193 77.262C36.1124 75.0653 34.7442 73.0109 33.1218 71.1488C32.3797 70.2974 31.4017 69.418 30.2561 69.5448C29.1652 69.6683 28.4983 70.7734 27.469 71.1867Z" fill="black"/>
<path fill-rule="evenodd" clip-rule="evenodd" d="M27.5 63C29.9853 63 32 61.2091 32 59C32 56.7909 29.9853 55 27.5 55C25.0147 55 23 56.7909 23 59C23 61.2091 25.0147 63 27.5 63Z" fill="#FBBEBE"/>
<path fill-rule="evenodd" clip-rule="evenodd" d="M32.5 60C33.3284 60 34 59.3284 34 58.5C34 57.6716 33.3284 57 32.5 57C31.6716 57 31 57.6716 31 58.5C31 59.3284 31.6716 60 32.5 60Z" fill="#FBBEBE"/>
<path fill-rule="evenodd" clip-rule="evenodd" d="M29 59C32.3137 59 35 58.3284 35 57.5C35 56.6716 32.3137 56 29 56C25.6863 56 23 56.6716 23 57.5C23 58.3284 25.6863 59 29 59Z" fill="#FBBEBE"/>
<path fill-rule="evenodd" clip-rule="evenodd" d="M23.0885 57.2704C23.2347 57.7421 23.3496 58.2233 23.4327 58.7107C22.9281 58.1893 22.491 57.6045 22.1319 56.9705C22.0351 56.8612 21.9573 56.7359 21.9019 56.5999C21.3657 55.3298 21 54.0444 21 52.653C20.9997 48.1715 24.3612 44.4315 28.7464 44.0344C33.1317 43.6374 37.0889 46.7148 37.8656 51.126C38.6423 55.5372 35.9813 59.822 31.7335 61C31.9934 60.1476 32.3492 59.3154 32.3955 58.431C32.4234 58.1361 32.3814 57.8385 32.273 57.5635C32.1278 57.2709 31.9134 57.0197 31.6491 56.8324C30.7025 56.0962 29.4846 55.7745 28.293 55.7947C27.1001 55.8451 25.9283 56.1312 24.8426 56.637C24.5001 56.7869 24.0897 56.9891 23.6842 57.1272C23.4909 57.1954 23.2913 57.2433 23.0885 57.2704Z" fill="#FBBEBE"/>
<path fill-rule="evenodd" clip-rule="evenodd" d="M44.8145 75.9415C44.2403 76.8013 43.0134 77.064 41.9348 76.9874C39.9242 76.8487 38.0951 75.8452 36.5418 74.6378C34.9885 73.4303 33.6307 72.0271 32.0424 70.8654C29.0877 68.7002 25.7594 67.8305 22 67.7799C22.7348 67.2105 22.4642 65.8595 22.5236 64.9719C22.6527 63.177 22.7749 61.3349 22.5236 59.5662C22.4974 59.3753 22.4677 59.1876 22.4328 59C22.4922 59.0587 22.555 59.1158 22.6196 59.1746C24.8936 61.2148 28.1458 61.9902 31.1872 61.2174C31.0911 61.5016 31.0159 61.7916 30.9621 62.0855C30.7457 63.3467 31.1087 64.6259 31.4665 65.8611C31.6794 66.6002 31.9325 67.3932 32.5835 67.855C33.0058 68.1552 33.5382 68.2727 34.0391 68.431C35.0375 68.7491 35.9592 69.2481 36.7513 69.8994C37.3028 70.3514 37.7984 70.8784 38.3901 71.2717C38.9528 71.6045 39.5455 71.8905 40.1616 72.1267C41.6735 72.779 43.1021 73.5885 44.4201 74.5399C44.6688 74.685 44.8624 74.8996 44.9734 75.1534C45.0392 75.4253 44.9817 75.7106 44.8145 75.9415Z" fill="#FBBEBE"/>
<path fill-rule="evenodd" clip-rule="evenodd" d="M53.9806 91.8146C53.8641 92.5569 53.1586 93.1363 52.6608 93.7126C51.3072 95.2882 49.9351 96.8687 48.4213 98.3108C46.8011 99.8523 45.0222 101.226 43.2451 102.6L40.9397 104.379C40.6553 104.63 40.322 104.823 39.9591 104.949C39.5341 105.051 39.085 104.999 38.6967 104.804C38.5421 104.732 38.3956 104.646 38.2596 104.545C37.782 104.187 37.431 103.699 37.0884 103.218C35.5289 101.023 33.9678 98.8274 32.405 96.631C31.8481 95.8465 31.3012 95.0408 30.7578 94.235C30.6852 94.1309 30.616 94.0251 30.5435 93.9209C30.0473 93.1884 29.5528 92.456 29.0448 91.7479L26.2668 90.4929L25.9023 90.3302L25.4719 90.1365C24.8998 89.8777 24.3192 89.614 23.8433 89.2136C23.3876 88.8004 23.008 88.3155 22.721 87.7795C22.1651 86.7884 21.6791 85.7622 21.2662 84.708C20.0848 81.8319 19.0452 78.8336 19.0013 75.7377C18.9625 73.0146 19.7962 70.1823 21.6729 68.1835C21.9294 67.9085 22.2052 67.6507 22.4982 67.412C22.8594 67.1206 23.2324 66.9497 23.6965 67.0132C24.1606 67.0767 24.6011 67.1418 25.0466 67.215C26.2753 67.419 27.4944 67.6686 28.7039 67.9638C29.7941 68.2323 30.9232 68.5384 32.0253 68.3251C32.2025 68.2909 32.378 68.2421 32.5535 68.1982C32.697 68.1624 32.8387 68.1282 32.9856 68.1054C33.0671 68.0918 33.1494 68.0831 33.232 68.0793C33.8176 68.05 34.3796 68.2763 34.9197 68.4993C35.9509 68.9258 37.0124 69.375 37.7888 70.1596C38.2512 70.6316 38.5904 71.2111 39.0832 71.6554C39.7414 72.2495 40.619 72.5539 41.4089 72.9788C41.5615 73.0604 41.7086 73.1512 41.8494 73.2506C42.1609 73.4758 42.4441 73.7352 42.6932 74.0237C43.716 75.1876 44.3235 76.7583 45.4526 77.9156C46.3562 78.8401 47.1415 79.8659 47.7918 80.9708C47.8981 81.1548 48.001 81.3403 48.1023 81.5291C48.2711 81.8433 48.428 82.1623 48.5732 82.4846C48.6103 82.5676 48.6474 82.6474 48.6812 82.7336C48.8935 83.2213 49.0789 83.7196 49.2364 84.2262C49.6195 85.4552 49.8744 86.7818 50.725 87.7681C51.319 88.4534 52.1426 88.9075 52.8363 89.4984C53.283 89.8633 53.6345 90.3245 53.8624 90.8445C53.9877 91.1527 54.0284 91.4868 53.9806 91.8146Z" fill="#FBBEBE"/>
<path opacity="0.06" fill-rule="evenodd" clip-rule="evenodd" d="M50 81.7418C49.8107 81.9784 49.6164 82.2118 49.4172 82.442C49.3842 82.4845 49.3479 82.5254 49.3116 82.5663C47.5738 84.5807 45.5845 86.3679 43.3916 87.8848C42.0345 88.8238 40.6032 89.6565 39.1752 90.4876L36.5338 92.0205C35.4294 92.6634 34.3101 93.3113 33.0852 93.681C32.6923 93.7971 32.2812 93.8904 31.88 94C31.809 93.8953 31.7414 93.789 31.6704 93.6843C31.185 92.9481 30.7013 92.2119 30.2044 91.5003L27.4871 90.2389C28.9877 89.2989 30.3191 88.1167 31.426 86.7413C33.0769 84.7241 34.3464 82.424 35.5978 80.1385C35.8196 79.7696 35.9922 79.3736 36.1112 78.9606C36.2763 78.2752 36.1376 77.5554 35.9346 76.8813C35.1913 74.4647 33.6283 72.3767 31.5102 70.9706C30.0245 69.9891 28.334 69.3919 26.6534 68.8161C25.4796 68.4136 24.1936 68.0243 23 68.1895C23.2505 67.9132 23.5203 67.6546 23.8073 67.4157C24.1606 67.1212 24.5254 66.9495 24.9794 67.0133C25.4334 67.0771 25.8643 67.1425 26.3001 67.2177C27.1833 67.486 28.0517 67.8067 28.9151 68.1372C29.4831 68.3435 30.0349 68.5912 30.5659 68.8782C31.0946 69.1981 31.6024 69.5505 32.0864 69.9334C33.5178 71.0147 35.025 71.9939 36.5966 72.8634C38.4125 73.8565 40.3193 74.663 42.2244 75.481C42.4264 75.5838 42.6494 75.6397 42.8765 75.6446C43.1105 75.6442 43.3144 75.4865 43.3718 75.2617C43.3793 75.1426 43.3518 75.0238 43.2925 74.9198C42.9623 74.2507 42.2128 73.9137 41.5343 73.5882C38.7179 72.2369 36.2416 70.2917 33.7917 68.3613C33.7322 68.3146 33.68 68.2594 33.6366 68.1977L34.0592 68.1044C36.8009 70.0559 39.6965 71.7858 42.718 73.2773C42.8776 73.358 43.0377 73.4366 43.1984 73.5129C43.314 73.5702 43.4279 73.6258 43.5451 73.6765C44.359 74.0724 45.1729 74.4945 45.7853 75.1489C46.1803 75.6002 46.5134 76.1014 46.7758 76.6392C47.4506 77.9025 48.0268 79.2151 48.4994 80.5655C48.5083 80.5944 48.5188 80.6228 48.5307 80.6506C48.5906 80.8569 48.6942 81.0482 48.8345 81.2117C48.8839 81.2666 48.9426 81.3125 49.0078 81.3475C49.3182 81.5291 49.7441 81.5095 50 81.7418Z" fill="black"/>
<path fill-rule="evenodd" clip-rule="evenodd" d="M34.0692 68.1093C36.8114 70.0579 39.7079 71.7846 42.7306 73.2727L43.2112 73.5096C44.136 73.9572 45.0987 74.4015 45.8006 75.1431C46.1953 75.5946 46.5285 76.0955 46.7914 76.6328C47.4668 77.8937 48.0426 79.2044 48.5138 80.5532C48.6194 80.8521 48.7433 81.1804 49.024 81.334C49.3048 81.4875 49.7506 81.4761 50 81.708C49.7754 81.9857 49.5475 82.2602 49.3114 82.5248C47.5736 84.5371 45.5836 86.3222 43.3895 87.8369C42.0321 88.7745 40.6004 89.6059 39.1719 90.4357L36.5297 91.9663C35.425 92.6066 34.3053 93.2535 33.08 93.6227C32.6193 93.7615 32.1321 93.8661 31.6648 94C31.1793 93.2649 30.6954 92.5299 30.1983 91.8193L27.1235 90.3949C28.7749 89.4704 30.2149 88.1554 31.4171 86.6934C33.0684 84.681 34.3383 82.3843 35.5901 80.1023C35.8117 79.7338 35.9843 79.3385 36.1037 78.9262C36.2688 78.2418 36.1301 77.5214 35.927 76.8484C35.183 74.4432 33.6242 72.3648 31.5128 70.963C30.0266 69.9829 28.3356 69.3883 26.6545 68.8117C25.4804 68.4115 24.1939 68.0211 23 68.1877C23.251 67.9117 23.5208 67.653 23.8075 67.4134C24.1609 67.121 24.5259 66.9495 24.98 67.0132C25.4341 67.0769 25.8651 67.1423 26.3011 67.2158C27.1846 67.4853 28.0532 67.8055 28.9169 68.1354C29.4853 68.3407 30.0374 68.5881 30.5683 68.8754C31.097 69.1947 31.605 69.5466 32.0892 69.929C33.5234 71.0062 35.0333 71.9811 36.6073 72.8464C38.4239 73.8396 40.3312 74.6514 42.2369 75.46C42.4389 75.5628 42.662 75.6186 42.8892 75.6233C43.1236 75.6241 43.3283 75.4662 43.3846 75.2411C43.392 75.1226 43.3645 75.0046 43.3053 74.9013C42.975 74.2332 42.2253 73.8951 41.5466 73.5717C38.7294 72.2224 36.2523 70.2786 33.8017 68.3445C33.7416 68.2984 33.6893 68.2433 33.6464 68.1812L34.0692 68.1093Z" fill="#2D92AF"/>
<path fill-rule="evenodd" clip-rule="evenodd" d="M56.5 77C62.299 77 67 72.299 67 66.5C67 60.701 62.299 56 56.5 56C50.701 56 46 60.701 46 66.5C46 72.299 50.701 77 56.5 77Z" fill="#2D92AF"/>
<path fill-rule="evenodd" clip-rule="evenodd" d="M68.1894 107C70.2095 106.395 72.2606 105.779 74.0349 104.674C75.2813 103.897 76.3559 102.898 77.4871 101.974C78.3382 101.279 79.2253 100.624 80.0059 99.8569C80.7052 99.1394 81.3596 98.3834 81.9658 97.5928C83.3458 95.8714 84.7711 94.1829 86.2417 92.5271C87.0308 91.644 87.8646 90.7446 88.9667 90.2531C90.9249 89.3766 93.2236 89.968 95.2901 90.5693C98.3848 91.4704 101.464 92.4255 104.359 93.7968C106.006 94.5782 107.602 95.4498 109.264 96.1985C112.304 97.5665 115.531 98.5053 118.746 99.4391C118.985 99.536 119.25 99.5567 119.503 99.4981C119.683 99.4193 119.838 99.296 119.951 99.141C120.371 98.6475 120.706 98.0948 120.947 97.5027C121.042 97.3631 121.006 97.1771 120.866 97.0783C119.491 95.8021 117.706 95.0173 116.038 94.108C114.711 93.3855 113.44 92.5746 112.172 91.7636C110.953 90.9854 109.723 90.199 108.7 89.198C108.185 88.6918 107.72 88.1331 107.162 87.6711C106.668 87.2863 106.145 86.9369 105.597 86.6258C103.146 85.1345 100.807 83.4829 98.5963 81.683C96.9149 80.3134 95.5377 78.5489 93.7411 77.3202C92.639 76.5665 91.3565 75.8801 90.0086 76.0177C88.3684 76.1815 87.158 77.4922 86.0147 78.6226C82.1721 82.4252 77.3238 85.1464 73.036 88.4902C69.5355 91.2164 66.2638 94.4554 62 95.8938C62.1908 96.4967 62.2579 97.0996 62.4504 97.696C62.6904 98.5249 62.9897 99.3373 63.3462 100.127C63.6997 100.827 64.0976 101.505 64.5376 102.159L66.2466 104.818C66.5904 105.358 66.9498 105.907 67.4415 106.336C67.6994 106.572 68.1894 106.658 68.1894 107Z" fill="#464353"/>
<path opacity="0.06" fill-rule="evenodd" clip-rule="evenodd" d="M68.1894 107C70.2095 106.395 72.2606 105.779 74.0349 104.674C75.2813 103.897 76.3559 102.898 77.4871 101.974C78.3382 101.279 79.2253 100.624 80.0059 99.8569C80.7052 99.1394 81.3596 98.3834 81.9658 97.5928C83.3458 95.8714 84.7711 94.1829 86.2417 92.5271C87.0308 91.644 87.8646 90.7446 88.9667 90.2531C90.9249 89.3766 93.2236 89.968 95.2901 90.5693C98.3848 91.4704 101.464 92.4255 104.359 93.7968C106.006 94.5782 107.602 95.4498 109.264 96.1985C112.304 97.5665 115.531 98.5053 118.746 99.4391C118.985 99.536 119.25 99.5567 119.503 99.4981C119.683 99.4193 119.838 99.296 119.951 99.141C120.371 98.6475 120.706 98.0948 120.947 97.5027C121.042 97.3631 121.006 97.1771 120.866 97.0783C119.491 95.8021 117.706 95.0173 116.038 94.108C114.711 93.3855 113.44 92.5746 112.172 91.7636C110.953 90.9854 109.723 90.199 108.7 89.198C108.185 88.6918 107.72 88.1331 107.162 87.6711C106.668 87.2863 106.145 86.9369 105.597 86.6258C103.146 85.1345 100.807 83.4829 98.5963 81.683C96.9149 80.3134 95.5377 78.5489 93.7411 77.3202C92.639 76.5665 91.3565 75.8801 90.0086 76.0177C88.3684 76.1815 87.158 77.4922 86.0147 78.6226C82.1721 82.4252 77.3238 85.1464 73.036 88.4902C69.5355 91.2164 66.2638 94.4554 62 95.8938C62.1908 96.4967 62.2579 97.0996 62.4504 97.696C62.6904 98.5249 62.9897 99.3373 63.3462 100.127C63.6997 100.827 64.0976 101.505 64.5376 102.159L66.2466 104.818C66.5904 105.358 66.9498 105.907 67.4415 106.336C67.6994 106.572 68.1894 106.658 68.1894 107Z" fill="black"/>
<path fill-rule="evenodd" clip-rule="evenodd" d="M113.416 104.592C113.797 105.117 113.92 105.78 113.753 106.402C114.353 106.824 115.083 107.034 115.821 106.996C116.557 106.956 117.28 106.795 117.96 106.519C118.55 106.308 119.108 106.023 119.621 105.67C120.503 105.035 121.139 104.127 121.653 103.184C121.939 102.666 122.181 101.994 121.814 101.526C121.673 101.367 121.501 101.237 121.308 101.145C120.01 100.422 118.66 99.7952 117.267 99.2681C116.884 99.0963 116.468 99.005 116.046 99C115.526 99.028 115.055 99.3059 114.644 99.6152C113.719 100.317 112.974 101.218 112.466 102.247C112.307 102.576 111.828 103.359 112.064 103.698C112.172 103.854 112.57 103.908 112.739 104.005C113.004 104.153 113.235 104.353 113.416 104.592Z" fill="#FBBEBE"/>
<path fill-rule="evenodd" clip-rule="evenodd" d="M122.039 101.003C124.936 101.538 127.6 102.926 130.448 103.674C131.6 103.977 132.787 104.184 133.888 104.629C134.989 105.074 136.027 105.835 136.501 106.918C136.702 107.438 136.835 107.982 136.897 108.535C137.02 109.318 137.121 110.193 136.652 110.835C136.157 111.514 135.222 111.665 134.385 111.764C131.374 112.12 128.364 112.475 125.344 112.727C124.733 112.764 124.125 112.836 123.523 112.942C123.027 113.042 122.542 113.19 122.049 113.306C121.412 113.455 120.761 113.547 120.114 113.645C118.458 113.88 116.783 114.117 115.121 113.936C114.362 113.853 113.513 113.61 113.179 112.93C113.04 112.578 112.982 112.2 113.008 111.823C113.008 110.816 112.99 109.807 113.008 108.8C113.023 107.766 113.074 106.692 113.547 105.77C113.665 105.488 113.885 105.261 114.165 105.133C114.338 105.084 114.518 105.068 114.696 105.086C115.586 105.116 116.508 105.154 117.304 105.548C117.936 105.859 118.391 104.93 119.035 105.208C120.256 105.743 119.429 104.121 120.662 104.626C120.95 103.746 122.172 104.269 121.96 103.367C121.748 102.465 122.51 102.858 122.422 101.93C122.418 101.728 122.379 101.528 122.306 101.339C122.21 101.158 122.241 100.974 122.039 101.003Z" fill="#464353"/>
<path opacity="0.06" fill-rule="evenodd" clip-rule="evenodd" d="M35 47.479C34.373 47.8524 33.5957 47.7831 32.8652 47.7665C32.2264 47.753 31.5875 47.7867 30.9535 47.8673C30.7251 47.8836 30.5019 47.9442 30.2957 48.0458C30.0272 48.2228 29.815 48.476 29.6849 48.7744C29.4263 49.2823 29.252 49.8306 29.1694 50.3969C29.0789 51.033 29.0886 51.7286 28.7007 52.2325C28.1723 52.9182 27.3481 52.8124 26.5999 52.9479C25.9487 53.0757 25.3246 53.3195 24.756 53.6683C23.6215 54.3687 22.8416 55.5394 22.6196 56.8752C22.5986 57.0256 22.584 57.1743 22.5776 57.3246C22.5614 57.7509 22.6034 58.1855 22.5485 58.6035C22.5352 58.7078 22.5147 58.8111 22.4871 58.9124C22.4799 58.9422 22.4707 58.9715 22.4596 59C22.4354 58.8067 22.4079 58.6167 22.3756 58.4267C21.8829 57.9153 21.456 57.3418 21.1054 56.7199C21.0108 56.6127 20.9349 56.4898 20.8807 56.3564C20.3571 55.1107 20 53.85 20 52.4853C19.9998 48.8139 22.3093 45.5589 25.7229 44.4195C29.1365 43.2801 32.8797 44.5148 34.9984 47.479H35Z" fill="black"/>
<path fill-rule="evenodd" clip-rule="evenodd" d="M35.7891 44.0713C35.364 43.0757 34.4658 42.3695 33.5427 41.8156C31.7232 40.7179 29.629 40.0284 27.505 40C26.4334 40.0003 25.3647 40.1124 24.3158 40.3347C23.2937 40.5195 22.2924 40.8071 21.3268 41.1931C19.7334 41.8635 18.325 42.9155 17.2228 44.2587C16.9912 44.2765 16.7616 44.314 16.5363 44.3709C15.6364 44.5984 14.8259 45.0988 14.0865 45.666C13.4677 46.1195 12.9182 46.6624 12.4555 47.2775C11.914 48.063 11.5394 48.9536 11.3555 49.893C10.7252 52.8314 11.501 55.8636 12.0701 58.8137C12.6391 61.7639 12.9716 64.9868 11.5738 67.6374C11.0461 68.6415 10.2968 69.4949 9.73439 70.4721C9.17198 71.4494 8.79814 72.6258 9.11739 73.7101C9.49785 75.0287 10.7782 75.8654 11.4465 77.0518C12.2877 78.6471 11.9715 80.6143 10.674 81.8578C11.7243 82.2259 12.8938 81.8293 13.84 81.2403C14.5902 80.7984 15.2285 80.186 15.7043 79.4515C16.8936 77.5037 16.3659 74.9886 16.7795 72.7379C17.3303 69.7927 19.5535 67.1656 19.2475 64.1836C19.0407 62.1756 17.7306 60.5105 16.7001 58.7886C16.0127 57.6403 15.435 56.4283 14.9748 55.1691C14.6439 54.2705 14.376 53.305 14.5397 52.3612C14.5939 52.0731 14.6811 51.7923 14.7994 51.5245C14.7994 51.5563 14.7994 51.5881 14.7994 51.6199C14.8183 52.4867 15.0107 53.3406 15.3652 54.13C16.5959 56.6735 19.8727 57.6106 21.2606 60.0688C21.6659 59.622 22.0877 59.1534 22.2531 58.5711C22.3987 58.0524 22.3242 57.5001 22.3457 56.9613C22.4036 55.4553 23.3084 54.0363 24.5755 53.2598C25.1571 52.906 25.7961 52.6595 26.4629 52.5319C27.2271 52.393 28.0708 52.4984 28.6133 51.804C29.0103 51.302 29.0004 50.5891 29.0947 49.9465C29.1785 49.3723 29.3569 48.8163 29.6224 48.3016C29.7551 47.9996 29.9725 47.7435 30.2476 47.5653C30.459 47.4616 30.6882 47.4002 30.9225 47.3846C31.571 47.3029 32.2244 47.2688 32.8778 47.2825C33.6337 47.3009 34.4426 47.3695 35.091 46.9763C36.0041 46.414 36.2142 45.0753 35.7891 44.0713Z" fill="#464353"/>
<path opacity="0.06" fill-rule="evenodd" clip-rule="evenodd" d="M131 35.0959C131 35.119 131 35.1405 131 35.1636C130.714 37.7421 128.346 37.6231 127.793 41.686C127.575 43.2777 125.267 43.5719 123.75 44C123.095 43.7686 122.431 43.5686 121.776 43.319C120.261 42.7455 121.32 41.8843 121.969 40.9587C124.092 37.9273 124.495 33.7851 126.906 31C127.79 32.7587 129.189 34.1749 130.897 35.0413C130.931 35.0645 130.965 35.081 131 35.0959Z" fill="black"/>
<path fill-rule="evenodd" clip-rule="evenodd" d="M132 33.4989C132 33.8946 131.977 34.29 131.933 34.6832C131.292 40.3303 126.275 44.4426 120.612 43.9618C114.949 43.481 110.696 38.5817 111.017 32.9075C111.338 27.2333 116.115 22.8441 121.796 23.0042C127.477 23.1644 132 27.8156 132 33.4989Z" fill="#A1616A"/>
<path fill-rule="evenodd" clip-rule="evenodd" d="M135.082 35.005C136.291 34.946 137.452 35.4209 138.568 35.8874C142.994 37.74 147.457 39.6076 151.412 42.3274C153.362 43.6747 155.169 45.2039 156.973 46.7381L164.384 53.0467C165.808 54.2576 167.242 55.4802 168.385 56.9622C169.058 57.8763 169.671 58.8326 170.222 59.8252L171.321 61.703C171.772 62.438 172.165 63.2065 172.498 64.0018C173.063 65.4518 173.273 67.1426 174.413 68.2019C175.177 68.9143 176.231 69.204 177.166 69.6738C178.101 70.1437 179.015 70.9689 179 72.0164C179 72.69 178.593 73.2963 178.287 73.9026C177.653 75.1695 177.388 76.5892 177.521 78L165.401 68.7206C164.919 68.3518 164.414 67.9712 163.821 67.8466C163.051 67.6782 162.266 67.9695 161.523 68.2322C155.666 70.3017 149.442 71.1214 143.25 70.6388C140.511 70.4232 137.731 69.9298 135.334 68.5876C134.008 67.8466 132.835 66.8647 131.67 65.893C130.216 64.6737 128.757 63.4511 127.467 62.0566C127.131 61.6845 126.781 61.2752 126.696 60.7767C126.632 60.4163 126.711 60.0492 126.741 59.6854C126.953 57.1307 124.835 55.0036 124.189 52.523C123.605 50.1385 124.397 47.6263 126.242 46.0106C127.686 47.277 127.634 49.5017 127.466 51.4165C127.239 53.9949 127.958 55.2731 127.731 57.8531C128.646 57.8195 128.479 58.4089 128.869 57.5786C129.259 56.7484 129.335 55.812 129.409 54.8975C129.679 51.59 130.007 48.288 130.392 44.9917C130.584 43.3429 130.802 41.6976 131.012 40.0505C131.14 39.0485 131.123 38.1121 131.651 37.2229C132.384 35.9919 133.63 35.074 135.082 35.005Z" fill="#2D92AF"/>
<path fill-rule="evenodd" clip-rule="evenodd" d="M138.015 38.1029C138.78 37.8655 139.604 38.0832 140.373 38.3091C141.733 38.7071 143.084 39.1276 144.428 39.5706C145.527 39.9318 146.64 40.3193 147.569 41.0004C148.534 41.7062 149.241 42.6875 149.941 43.6522C150.442 44.3464 150.944 45.049 151.278 45.8372C151.713 46.8696 151.83 48.0009 151.947 49.1124C152.023 49.592 152.017 50.081 151.928 50.5586C151.771 51.0772 151.495 51.553 151.121 51.9488C150.546 52.6208 149.878 53.2107 149.139 53.7018C147.171 55.0079 144.793 55.5521 142.476 56.032C140.408 56.4591 138.326 56.8565 136.216 56.9852C135.396 57.0363 134.443 56.9852 133.941 56.3453C133.799 56.1458 133.686 55.927 133.607 55.6956C132.375 52.475 131.841 49.035 132.041 45.5981C132.059 44.9717 132.157 44.35 132.333 43.7478C132.507 43.266 132.722 42.7997 132.977 42.3543C133.61 41.1719 134.277 39.9483 135.369 39.1567C136.511 38.3322 137.99 38.0716 139.406 38.1244" fill="#A1616A"/>
<path opacity="0.06" fill-rule="evenodd" clip-rule="evenodd" d="M144 50.1902C143.346 50.6347 143.118 51.4936 143.034 52.2853C142.68 55.652 144.058 58.9852 143.966 62.3686C143.893 65.0526 142.898 67.6292 141.916 70.1337C140.242 74.4062 139.37 79.0461 139.032 83.6273C138.694 88.2085 138.2 92.9792 135.76 96.8542C135.206 97.7315 134.56 98.5468 134.018 99.4291C133.449 100.352 132.998 101.341 132.495 102.301C131.014 105.135 129.105 107.719 126.837 109.962C126.171 110.616 125.466 111.25 124.617 111.628C123.512 112.111 122.26 112.124 121.145 111.665C120.007 111.19 119.048 110.12 119.002 108.878C118.96 107.768 119.618 106.766 120.277 105.877C122.51 102.865 125.079 100.121 127.932 97.698C128.449 97.2585 128.995 96.8039 129.263 96.1765C129.564 95.4535 129.441 94.6332 129.48 93.8498C129.541 92.6001 130.024 91.4141 130.312 90.1963C131.477 85.2494 129.406 79.8479 131.091 75.0554C131.465 73.9902 132.021 72.972 132.152 71.8497C132.245 71.0647 132.051 70.1874 131.565 69.5986C131.108 69.0693 130.853 68.3942 130.843 67.693C130.843 67.5487 130.843 67.4061 130.861 67.2652C131.064 65.0694 131.265 62.8635 131.155 60.661C131.046 58.4585 130.611 56.2442 129.603 54.2866C129.08 53.2717 128.405 52.3222 128.082 51.2269C127.562 49.4538 128.042 47.5364 128.816 45.8589C129.42 44.5471 130.225 43.2974 131.35 42.3983C133.44 40.7292 136.569 40.5363 138.857 41.9169C140.545 42.9334 141.7 44.6428 142.637 46.3857C143.309 47.6589 144.018 48.7375 144 50.1902Z" fill="black"/>
<path fill-rule="evenodd" clip-rule="evenodd" d="M144 50.1902C143.346 50.6347 143.118 51.4936 143.035 52.2853C142.68 55.652 144.058 58.9852 143.967 62.3686C143.893 65.0526 142.898 67.6292 141.916 70.1337C140.242 74.4062 139.372 79.0461 139.032 83.6273C138.693 88.2085 138.2 92.9792 135.76 96.8542C135.206 97.7315 134.562 98.5468 134.018 99.4291C133.451 100.352 132.998 101.341 132.495 102.301C131.014 105.134 129.105 107.719 126.837 109.962C126.171 110.616 125.464 111.25 124.615 111.628C123.51 112.111 122.259 112.124 121.144 111.665C120.007 111.19 119.049 110.12 119.002 108.878C118.959 107.768 119.616 106.766 120.277 105.877C122.51 102.865 125.079 100.121 127.932 97.698C128.45 97.2585 128.997 96.8039 129.263 96.1765C129.566 95.4535 129.442 94.6332 129.48 93.8498C129.541 92.6001 130.024 91.4141 130.312 90.1963C131.477 85.2494 129.407 79.8479 131.091 75.0554C131.465 73.9902 132.023 72.972 132.154 71.8497C132.246 71.0647 132.053 70.1874 131.567 69.5986C131.102 69.0729 130.838 68.3971 130.824 67.693C130.824 67.5487 130.824 67.4061 130.843 67.2652C131.044 65.0694 131.245 62.8635 131.136 60.661C131.026 58.4585 130.591 56.2442 129.583 54.2866C129.06 53.2717 128.385 52.3222 128.062 51.2269C127.543 49.4538 128.022 47.5364 128.796 45.8589C129.402 44.5471 130.205 43.2974 131.33 42.3983C133.421 40.7292 136.549 40.5363 138.838 41.9169C140.525 42.9334 141.68 44.6428 142.617 46.3857C143.306 47.6589 144.012 48.7375 144 50.1902Z" fill="#A1616A"/>
<path fill-rule="evenodd" clip-rule="evenodd" d="M162.073 93.9783L161.927 94.0217L162.073 93.9783Z" fill="#464353"/>
<path fill-rule="evenodd" clip-rule="evenodd" d="M131.985 102.084C131.991 102.027 132.001 101.971 132.015 101.916L131.985 102.084Z" fill="#464353"/>
<path fill-rule="evenodd" clip-rule="evenodd" d="M168.094 90.5255C168.624 89.995 169.442 89.7576 170.229 89.5808C171.497 89.2974 172.792 89.115 174.098 89.0359C174.908 88.9605 175.728 89.0041 176.522 89.165C177.307 89.3514 178.051 89.756 178.449 90.3694C178.801 90.9111 178.856 91.5547 178.902 92.1745C178.998 93.449 179.086 94.7235 178.843 95.9789C178.687 96.7755 178.394 97.5466 178.204 98.3368C177.589 100.927 178.123 103.609 178.068 106.253C178.055 106.817 178.012 107.396 177.738 107.907C177.445 108.45 176.918 108.863 176.404 109.271C175.839 109.712 175.264 110.157 174.582 110.451C173.573 110.889 172.41 110.963 171.281 110.993C170.594 111.01 169.886 111.012 169.255 110.794C168.623 110.576 168.053 110.085 168.007 109.491C167.934 108.482 169.249 107.823 169.625 106.867C169.923 106.105 169.581 105.264 169.105 104.571C168.343 103.466 167.255 102.556 165.953 101.934C165.471 101.705 164.957 101.512 164.555 101.189C164.153 100.865 163.881 100.363 164.052 99.9141C164.257 99.3708 164.988 99.1175 165.646 99.0633C166.303 99.0091 166.998 99.0506 167.589 98.7972C168.116 98.5726 168.483 98.1393 168.735 97.682C169.272 96.7061 169.347 95.5872 168.943 94.5642C168.783 94.1751 168.552 93.8109 168.258 93.4856C167.982 93.1798 167.414 92.9217 167.217 92.5871C166.867 91.9849 167.624 91.0035 168.094 90.5255Z" fill="#2D92AF"/>
<path opacity="0.06" fill-rule="evenodd" clip-rule="evenodd" d="M158.563 65.8685C155.857 63.4226 152.085 62.7575 148.547 62.0154C146.725 61.6345 144.911 61.2101 143.106 60.7422C141.92 60.4339 140.731 60.1056 139.503 60.0201C138.274 59.9347 137.01 60.1106 135.958 60.7506C134.906 61.3905 134.114 62.5498 134.107 63.8012C134.107 64.3038 134.223 64.7964 134.187 65.2939C134.13 66.0947 133.696 66.8017 133.4 67.5505C132.946 68.7343 132.877 70.0357 133.201 71.2629C133.725 73.218 135.236 74.9402 135.105 76.9589C134.887 80.3379 134.954 83.8694 135.632 87.1781C136.31 90.4868 137.157 93.8105 137.137 97.1962C137.118 100.582 136.115 104.142 133.644 106.397C135.318 108.005 137.366 109.15 139.594 109.722C141.499 110.21 143.764 110.161 145.121 108.709C145.435 108.374 145.696 107.926 145.63 107.466C145.563 107.175 145.443 106.9 145.278 106.653C144.346 104.946 144.459 102.842 144.872 100.935C145.285 99.029 145.99 97.1761 146.169 95.2295C146.3 93.8172 146.153 92.3815 146.416 90.9877C146.619 89.9205 147.058 88.9153 147.322 87.8616C148.1 84.7355 147.283 81.4537 146.47 78.3393C147.15 79.9392 148.436 81.1873 149.766 82.2729C151.784 83.918 154.224 85.3705 156.789 85.079C159.073 84.8176 161.017 83.1943 162.359 81.2895C162.37 79.0865 163.117 77.0041 162.984 74.8061C162.899 73.8407 162.73 72.8849 162.48 71.9498C162.229 70.9044 161.972 69.849 161.497 68.8891C160.87 67.6142 159.608 66.8117 158.563 65.8685Z" fill="black"/>
<path fill-rule="evenodd" clip-rule="evenodd" d="M158.57 65.8703C155.863 63.4237 152.091 62.7584 148.55 62.016C146.727 61.635 144.913 61.2105 143.109 60.7424C141.922 60.4341 140.731 60.1056 139.504 60.0201C138.277 59.9347 137.012 60.1106 135.96 60.7508C134.908 61.3909 134.113 62.5506 134.108 63.8024C134.108 64.3051 134.223 64.7978 134.187 65.2955C134.131 66.0965 133.687 66.8037 133.399 67.5528C132.946 68.7371 132.877 70.0389 133.202 71.2663C133.725 73.222 135.235 74.9447 135.106 76.964C134.886 80.3441 134.954 83.8766 135.632 87.1863C136.31 90.496 137.158 93.8207 137.138 97.2075C137.118 100.594 136.109 104.144 133.635 106.396C135.31 108.004 137.359 109.149 139.587 109.722C141.493 110.21 143.761 110.161 145.116 108.708C145.431 108.373 145.691 107.926 145.625 107.465C145.558 107.174 145.438 106.899 145.273 106.652C144.341 104.945 144.454 102.84 144.867 100.933C145.28 99.0257 145.986 97.1723 146.166 95.225C146.296 93.8123 146.148 92.3762 146.414 90.9819C146.615 89.9145 147.056 88.909 147.318 87.8549C148.096 84.7279 147.28 81.445 146.466 78.3298C147.146 79.9301 148.432 81.1786 149.764 82.2645C151.783 83.9101 154.223 85.363 156.789 85.0714C159.073 84.81 161.018 83.1862 162.36 81.2808C162.37 79.0772 163.117 76.9942 162.984 74.7955C162.899 73.8298 162.73 72.8737 162.48 71.9383C162.23 70.8926 161.972 69.8369 161.496 68.8767C160.887 67.6165 159.615 66.8138 158.57 65.8703Z" fill="#A1616A"/>
<path fill-rule="evenodd" clip-rule="evenodd" d="M141.229 107.533C140.004 106.815 138.946 105.862 138.121 104.733C137.824 104.329 137.557 103.898 137.186 103.554C136.816 103.211 136.313 102.955 135.8 103.007C135.221 103.064 134.757 103.488 134.389 103.925C133.404 105.1 132.77 106.536 131.676 107.62C130.414 108.874 128.652 109.548 126.894 109.978C125.136 110.409 123.321 110.635 121.598 111.18C121.057 111.35 120.487 111.581 120.195 112.052C119.825 112.651 120.028 113.436 120.419 114.031C121.139 115.155 122.377 115.88 123.67 116.31C124.962 116.741 126.33 116.913 127.677 117.166C130.058 117.614 132.498 118.333 134.867 117.827C135.812 117.624 136.704 117.232 137.659 117.062C139.829 116.673 142.068 117.459 144.247 117.144C145.301 116.991 146.296 116.586 147.253 116.13C147.733 115.931 148.169 115.646 148.539 115.29C148.888 114.917 149.098 114.389 148.954 113.907C148.873 113.629 148.684 113.395 148.559 113.133C148.362 112.728 148.322 112.273 148.275 111.829C148.095 110.135 147.789 108.456 147.36 106.804C147.211 106.227 146.989 105.585 146.43 105.333C146.316 105.273 146.182 105.259 146.057 105.292C145.859 105.365 145.794 105.596 145.733 105.79C145.399 106.886 144.46 107.712 143.296 107.934C142.132 108.156 140.937 107.737 140.193 106.847" fill="#2D92AF"/>
<path opacity="0.06" fill-rule="evenodd" clip-rule="evenodd" d="M131.983 33.321C131.983 33.7101 131.96 34.0988 131.914 34.4855C130.815 34.6429 129.704 34.2891 128.923 33.5332C128.56 33.1648 128.289 32.7191 127.93 32.3474C127.57 31.9757 127.07 31.6665 126.554 31.706C126.114 31.7372 125.733 32.0037 125.432 32.3129C125.041 32.7154 124.754 33.2005 124.595 33.7289C124.48 34.1023 124.423 34.5266 124.1 34.7749C123.777 35.0233 123.38 35.0068 122.996 34.9937C122.5 34.9772 121.984 34.9542 121.546 34.7305C120.72 34.3045 120.442 33.3293 120.136 32.4806C119.62 31.0547 118.46 28.3575 116.657 28.0697C115.797 27.9331 114.752 28.3673 114.079 28.8361C113.063 29.5416 112.313 29.9988 111 29.9791C112.71 25.2049 117.776 22.3128 122.979 23.1409C128.182 23.9689 131.997 28.2743 132 33.321H131.983Z" fill="black"/>
<path fill-rule="evenodd" clip-rule="evenodd" d="M110.24 29.7284C109.93 29.7351 109.621 29.6861 109.328 29.5836C108.493 29.2559 108.087 28.2901 108.017 27.395C107.907 26.0308 108.361 24.6925 108.817 23.4007C108.913 23.1196 109.028 22.8178 109.28 22.6608C109.483 22.5607 109.705 22.5049 109.932 22.497C111.167 22.3245 112.239 21.5674 113.151 20.7189C114.063 19.8703 114.886 18.908 115.905 18.2009C118.606 16.3331 122.616 16.6815 124.952 18.9856C125.878 19.8962 126.673 21.1311 127.957 21.3449C128.697 21.4674 129.49 21.2121 130.194 21.4881C130.71 21.6898 131.078 22.1469 131.374 22.6143C132.335 24.1251 132.785 25.9152 132.935 27.7003C133.085 29.4853 132.947 31.2806 132.808 33.0656C132.816 33.3329 132.747 33.5968 132.61 33.8262C132.5 33.9585 132.362 34.0646 132.206 34.1366C130.864 34.7996 129.249 34.5272 128.198 33.4606C127.833 33.076 127.563 32.6086 127.203 32.2171C126.844 31.8256 126.343 31.5048 125.827 31.5462C125.388 31.579 125.002 31.8584 124.703 32.1826C124.311 32.6047 124.024 33.1135 123.865 33.6675C123.751 34.059 123.693 34.504 123.369 34.7627C123.046 35.0214 122.648 35.0076 122.263 34.9938C121.767 34.9748 121.251 34.9524 120.812 34.7161C119.985 34.2712 119.706 33.2484 119.401 32.3585C118.885 30.8633 117.725 28.0331 115.918 27.733C115.058 27.5881 114.012 28.0452 113.337 28.5367C112.305 29.2714 111.561 29.7509 110.24 29.7284Z" fill="#464353"/>
<path opacity="0.06" fill-rule="evenodd" clip-rule="evenodd" d="M53.9824 92.6654C53.8682 93.416 53.1767 94.0021 52.6886 94.5848C51.3618 96.1783 50.0168 97.7767 48.5327 99.2351C46.9445 100.794 45.2008 102.183 43.4587 103.573L41.1987 105.372C40.9199 105.626 40.5932 105.821 40.2375 105.948C39.8209 106.051 39.3806 105.999 39 105.802C39.0331 105.736 39.0678 105.675 39.1059 105.614L41.8158 101.095C42.3485 100.21 42.6976 99.403 43.3048 98.5717C44.2197 97.3273 45.1428 96.0762 46.2695 95.021C47.694 93.686 49.5204 92.7164 51.2146 91.7518C51.4594 91.0209 52.4851 90.8184 53.1783 91.1641C53.4352 91.2966 53.6666 91.4733 53.8616 91.686C53.9858 91.9967 54.0274 92.334 53.9824 92.6654Z" fill="black"/>
<path fill-rule="evenodd" clip-rule="evenodd" d="M41.9728 100.954L39.1931 105.673C39.0794 105.864 38.9623 106.08 39.0115 106.297C39.074 106.479 39.1931 106.635 39.3509 106.742C40.4167 107.62 41.5978 108.547 41.9321 109.896C42.1713 110.858 41.9321 111.889 42.1459 112.855C42.5379 114.598 44.2671 115.657 45.903 116.327C49.5685 117.829 53.6379 118.406 57.5325 117.702C61.4271 116.997 65.1231 114.99 67.6448 111.903C68.4186 110.954 69.0805 109.916 69.8153 108.937C71.8516 106.23 74.4362 104.008 77.0003 101.808C80.3009 98.9758 82.2457 94.7514 85.1458 91.4964C85.6736 90.9035 86.2557 90.2934 87.0125 90.0974C87.4368 89.9892 88.0307 90.149 88.0477 90.5924C88.0867 91.4517 88.7689 92.1546 89.2356 92.873C90.9937 95.5953 92.8332 98.4017 95.5501 100.138C97.0366 101.09 98.7217 101.672 100.402 102.2C104.661 103.544 109.004 104.606 113.341 105.658C113.56 105.214 113.823 104.795 114.125 104.405C114.575 103.846 115.167 103.42 115.619 102.858C116.445 101.846 116.735 100.507 117 99.2215C114.409 97.6146 111.75 95.9562 109.194 94.2857C107.908 93.447 106.613 92.5894 105.571 91.4551C104.892 90.7093 104.322 89.8551 103.641 89.1041C102.945 88.3753 102.195 87.7014 101.398 87.0882L95.2887 82.1334C93.5341 80.7121 91.7454 79.2118 90.0281 77.7407C89.0625 76.9123 87.9917 76.041 86.7291 76.0014C85.6482 75.9671 84.6537 76.5531 83.7238 77.1168C78.2617 80.4291 72.7182 83.5925 67.0933 86.607C65.9546 87.2153 64.8108 87.8203 63.7248 88.5198C61.6116 89.8812 59.7354 91.5873 58.1722 93.569C57.8854 93.9316 57.5223 94.3441 57.0675 94.2891C56.9425 94.2705 56.8221 94.2279 56.7128 94.1637C56.012 93.7838 55.5826 93.05 55.1855 92.354C54.7884 91.6579 54.3455 90.9258 53.6345 90.5649C52.9234 90.204 51.873 90.4154 51.6202 91.1802C49.874 92.2165 48.0073 93.2201 46.5445 94.6139C45.3888 95.7156 44.4419 97.02 43.5035 98.321C42.8773 99.1889 42.5175 100.031 41.9728 100.954Z" fill="#464353"/>
<path opacity="0.06" fill-rule="evenodd" clip-rule="evenodd" d="M38 73C38 73 41.4943 73.9396 44 75L38 73Z" fill="black"/>
<path fill-rule="evenodd" clip-rule="evenodd" d="M177.918 75.541C177.972 77.0674 178.015 78.5972 177.995 80.122C177.984 80.9302 177.947 81.7728 177.52 82.4812C177.217 82.9901 176.737 83.3876 176.262 83.777L173.301 86.2197C172.382 86.9772 171.391 87.7674 170.167 87.9556C168.767 88.1716 167.398 87.5515 166.052 87.1375C164.696 86.7218 163.276 86.5047 161.845 86.4946C161.025 86.4946 160.198 86.5535 159.389 86.4357C158.804 86.3343 158.23 86.1859 157.673 85.9923L155 85.1481C155.076 84.5345 155.719 84.1435 156.259 83.7558C158.173 82.3422 159.013 80.0696 159.617 77.8953C160.108 76.1978 160.458 74.469 160.663 72.7236C160.755 71.8598 160.796 70.9812 160.597 70.1321C160.409 69.4471 160.144 68.7815 159.806 68.1458L158.865 66.2169C158.326 65.1273 157.247 64.643 156.149 64C157.807 64.5726 159.827 64.7968 161.088 65.9322C161.331 66.1838 161.619 66.3962 161.94 66.5605C162.283 66.7094 162.673 66.7241 163.049 66.7797C164.921 67.0349 166.512 68.1049 168.058 69.0948C169.951 70.3077 171.896 71.4469 173.894 72.5126C174.793 72.9936 175.721 73.4664 176.478 74.1225C177.235 74.7785 177.828 75.6522 177.876 76.6028" fill="#464353"/>
<path opacity="0.06" fill-rule="evenodd" clip-rule="evenodd" d="M26.2247 73.4532C24.025 73.8837 22.8807 76.4454 23.0099 78.6613C23.134 80.6406 23.9545 82.5141 25.3287 83.956C26.2465 84.9118 27.3908 85.6499 28.2197 86.6822C29.4446 88.2049 29.8708 90.2181 30.9664 91.8355C31.7618 93.0092 32.8776 93.9301 33.9867 94.8128C36.5438 96.8343 39.1842 98.7476 41.908 100.553C43.0154 101.286 44.2269 102.027 45.5591 101.999C46.8142 101.973 47.9703 101.243 48.7891 100.299C49.6079 99.3544 50.1314 98.2074 50.6633 97.077C52.5794 92.9377 54.509 88.7535 55.4252 84.2918C55.7121 82.8904 55.905 81.4458 56.546 80.1641C57.0494 79.1667 57.7943 78.3122 58.4588 77.4112C60.0286 75.2732 61.1304 72.834 61.6938 70.2498C62.0596 68.5642 62.182 66.7588 61.5814 65.1463C60.9807 63.5339 59.5226 62.1358 57.786 62.0095C56.4118 61.9097 55.0627 62.6079 54.1399 63.6236C53.217 64.6393 52.6734 65.9376 52.3026 67.2526C51.771 69.1443 51.5668 71.1115 51.6985 73.0708C51.8059 74.6517 52.1314 76.2476 51.8563 77.8102C51.6616 78.9124 51.1767 79.9414 50.6968 80.9554C49.4569 83.572 48.1968 86.2218 46.3226 88.436C45.7118 89.1575 44.8712 89.8873 43.9366 89.7177C42.6446 89.485 42.3023 87.8642 41.6647 86.7254C40.8828 85.3291 39.3996 84.4896 38.2368 83.3808C36.5824 81.8015 35.5907 79.6837 34.4145 77.7288C33.2383 75.7738 31.7165 73.8438 29.5486 73.0941C27.3808 72.3444 24.4914 73.3069 23.9344 75.5145" fill="black"/>
<path opacity="0.06" fill-rule="evenodd" clip-rule="evenodd" d="M27.8714 74.7284C25.6697 75.1589 22.8673 75.4398 23.0049 77.659C23.1276 79.6385 23.9485 81.5123 25.324 82.9534C26.242 83.9109 27.3864 84.6489 28.2154 85.6812C29.4404 87.2039 29.8667 89.2152 30.9625 90.8343C31.7579 92.0095 32.8738 92.9305 33.9831 93.8115C36.5405 95.8339 39.1813 97.7472 41.9054 99.5514C43.013 100.286 44.2246 101.027 45.557 100.999C46.8122 100.973 47.9685 100.241 48.7874 99.2987C49.6063 98.3562 50.1299 97.2075 50.6618 96.0755C52.5782 91.9364 54.5081 87.7524 55.4243 83.2908C55.7113 81.8912 55.9043 80.445 56.5453 79.165C57.0487 78.1676 57.7938 77.3132 58.4583 76.4106C60.0286 74.2734 61.1306 71.8348 61.6937 69.2511C62.0596 67.5639 62.1821 65.7603 61.5813 64.1462C60.9805 62.5321 59.5223 61.1374 57.7854 61.0095C56.411 60.9097 55.0618 61.6095 54.1389 62.6235C53.2159 63.6375 52.6722 64.9374 52.3013 66.254C51.7696 68.1456 51.5653 70.1128 51.6972 72.072C51.8046 73.6545 52.1302 75.2503 51.855 76.8112C51.6603 77.915 51.1753 78.9439 50.6954 79.9579C49.4553 82.5744 48.195 85.2224 46.3206 87.4382C45.7097 88.1597 44.869 88.8878 43.9343 88.7199C42.6421 88.4855 42.2998 86.8647 41.6621 85.7277C40.8801 84.3314 39.3967 83.492 38.2337 82.3832C36.5791 80.8057 35.5874 78.6863 34.411 76.7314C33.2346 74.7766 31.7126 72.8483 29.5445 72.0969C27.3764 71.3456 30.0915 76.1579 29.5327 78.3654" fill="black"/>
<path fill-rule="evenodd" clip-rule="evenodd" d="M26.2247 73.45C24.025 73.8806 22.8807 76.4423 23.0099 78.6582C23.1336 80.638 23.9542 82.5121 25.3287 83.9544C26.2465 84.9103 27.3908 85.6484 28.2197 86.6807C29.4446 88.2034 29.8708 90.2165 30.9664 91.834C31.7618 93.0092 32.8776 93.9302 33.9867 94.8129C36.5438 96.8343 39.1842 98.7471 41.908 100.551C43.0154 101.286 44.2269 102.027 45.5591 101.999C46.8142 101.973 47.9703 101.243 48.7891 100.299C49.6079 99.3544 50.1314 98.2074 50.6633 97.077C52.5794 92.9378 54.509 88.7536 55.4252 84.2902C55.7121 82.8905 55.905 81.4443 56.546 80.1643C57.0494 79.1669 57.7943 78.3124 58.4588 77.4098C60.0288 75.2725 61.1307 72.8338 61.6938 70.25C62.0596 68.5627 62.182 66.7591 61.5814 65.1449C60.9807 63.5308 59.5226 62.1361 57.786 62.0098C56.4118 61.9083 55.0627 62.6082 54.1399 63.6239C53.217 64.6396 52.6734 65.9379 52.3026 67.2528C51.771 69.1445 51.5668 71.1117 51.6985 73.071C51.8059 74.6519 52.1314 76.2478 51.8563 77.8087C51.6616 78.9125 51.1767 79.9415 50.6968 80.9555C49.4569 83.5721 48.1968 86.2219 46.3226 88.4361C45.7118 89.1576 44.8712 89.8857 43.9366 89.7178C42.6446 89.4834 42.3023 87.8643 41.6647 86.7256C40.8828 85.3275 39.3996 84.488 38.2368 83.3809C36.5824 81.8017 35.5907 79.6838 34.4145 77.7289C33.2383 75.774 31.7165 73.8457 29.5486 73.096C27.3808 72.3462 24.4914 73.3087 23.9344 75.5163" fill="#FBBEBE"/>
<g opacity="0.06">
<path fill-rule="evenodd" clip-rule="evenodd" d="M16.1893 59.6657C15.4877 58.5174 14.8981 57.3055 14.4284 56.0464L14.371 55.879C14.0147 55.5 13.7151 55.0723 13.4813 54.609C13.1193 53.8197 12.9229 52.9658 12.9039 52.099C12.9039 52.0672 12.9039 52.0355 12.9039 52.0037C12.7831 52.2714 12.6941 52.5522 12.6388 52.8403C12.47 53.7841 12.7485 54.7479 13.0828 55.6481C13.5528 56.9071 14.1425 58.119 14.8437 59.2675C15.8922 61.0044 17.231 62.6777 17.4387 64.6706C17.751 67.6524 15.4819 70.2778 14.9214 73.2245C14.4926 75.4751 15.0362 77.9901 13.8223 79.9378C13.3371 80.6722 12.6856 81.2842 11.9196 81.7249C11.4392 82.0284 10.9132 82.2543 10.3613 82.3943C10.2606 82.5126 10.1523 82.6244 10.0371 82.7289C11.1092 83.097 12.3028 82.7005 13.2685 82.1115C14.0342 81.6696 14.6856 81.0572 15.1713 80.3227C16.3852 78.375 15.8466 75.86 16.2687 73.6094C16.8309 70.6644 19.1 68.0373 18.7876 65.0555C18.5783 63.0508 17.2411 61.3792 16.1893 59.6657Z" fill="black"/>
<path fill-rule="evenodd" clip-rule="evenodd" d="M35.6724 44.9406C35.2385 43.945 34.3218 43.2389 33.3797 42.685C32.1854 41.9748 30.8859 41.4553 29.5286 41.1456C30.3997 41.4469 31.2379 41.8343 32.0307 42.3018C32.9728 42.8574 33.8879 43.5618 34.3251 44.5591C34.7624 45.5564 34.5446 46.9018 33.6059 47.4573C32.9441 47.8505 32.1185 47.7802 31.347 47.7635C30.6802 47.7484 30.0132 47.782 29.3514 47.8639C29.1124 47.881 28.8788 47.9423 28.6625 48.0446C28.3808 48.2255 28.1589 48.4844 28.0244 48.7892C27.7529 49.3038 27.5703 49.8598 27.4841 50.4341C27.3895 51.0767 27.398 51.7811 26.9928 52.2915C26.4424 52.9859 25.5814 52.8805 24.798 53.0177C24.1177 53.1471 23.4656 53.394 22.8716 53.7473C21.5784 54.522 20.6549 55.9376 20.5958 57.4486C20.5755 57.9874 20.6498 58.5379 20.5029 59.0567C20.4082 59.3593 20.2595 59.6426 20.064 59.8933C20.3631 60.2103 20.6248 60.56 20.844 60.9358C21.2576 60.489 21.6881 60.0205 21.857 59.4382C22.0055 58.9194 21.9295 58.3673 21.9515 57.8285C22.0106 56.3225 22.9341 54.9035 24.2273 54.1271C24.8209 53.7733 25.4732 53.5268 26.1537 53.3992C26.9337 53.2603 27.7947 53.3657 28.3485 52.6713C28.7537 52.1693 28.7436 51.4565 28.8398 50.814C28.9254 50.2397 29.1074 49.6837 29.3784 49.1691C29.5138 48.8671 29.7357 48.6111 30.0166 48.4328C30.2323 48.3291 30.4662 48.2677 30.7054 48.2521C31.3672 48.1704 32.0342 48.1363 32.701 48.15C33.4725 48.1685 34.2981 48.2371 34.9599 47.8438C35.8919 47.2833 36.1063 45.9446 35.6724 44.9406Z" fill="black"/>
</g>
<path opacity="0.06" fill-rule="evenodd" clip-rule="evenodd" d="M26 60C26 60 28.0695 61.6982 32 60.6686C32 60.6652 29.566 61.5795 26 60Z" fill="black"/>
<path opacity="0.06" fill-rule="evenodd" clip-rule="evenodd" d="M132.831 31.5889C132.835 31.8638 132.763 32.1343 132.624 32.3687C132.514 32.5048 132.375 32.6137 132.219 32.6874C130.877 33.3725 129.26 33.092 128.208 31.9912C127.843 31.5924 127.572 31.101 127.212 30.7075C126.852 30.3141 126.351 29.9704 125.834 30.0132C125.394 30.0488 125.01 30.3372 124.709 30.6701C124.318 31.1074 124.031 31.6321 123.87 32.2031C123.758 32.6091 123.697 33.0666 123.375 33.3355C123.053 33.6043 122.653 33.5865 122.267 33.5723C121.769 33.5545 121.253 33.5313 120.815 33.2874C119.986 32.8281 119.707 31.7705 119.4 30.8535C118.883 29.3081 117.722 26.3881 115.915 26.0766C115.053 25.9288 114.004 26.4006 113.33 26.9063C112.312 27.6701 111.561 28.165 110.243 28.1526C109.932 28.1587 109.623 28.1081 109.33 28.003C108.572 27.695 108.167 26.8439 108.044 26C107.998 26.3868 107.988 26.7774 108.015 27.1662C108.087 28.0885 108.494 29.0855 109.33 29.4256C109.623 29.5307 109.932 29.5813 110.243 29.5752C111.561 29.5965 112.31 29.1016 113.33 28.3377C114.008 27.8321 115.053 27.3585 115.915 27.508C117.715 27.8107 118.887 30.7307 119.393 32.2743C119.7 33.1931 119.979 34.2507 120.808 34.71C121.246 34.9522 121.762 34.9771 122.26 34.9949C122.646 35.0091 123.07 35.0109 123.368 34.7581C123.666 34.5053 123.751 34.0299 123.863 33.6257C124.024 33.0545 124.311 32.5297 124.702 32.0927C125.003 31.7598 125.391 31.4714 125.827 31.4357C126.358 31.393 126.861 31.726 127.205 32.1301C127.55 32.5343 127.836 33.0204 128.201 33.4138C129.253 34.5146 130.87 34.7951 132.212 34.11C132.368 34.0357 132.506 33.9269 132.617 33.7913C132.756 33.5563 132.828 33.2852 132.824 33.0097C132.959 31.51 133.016 30.004 132.996 28.498C132.982 29.5289 132.908 30.5598 132.831 31.5889Z" fill="black"/>
<path fill-rule="evenodd" clip-rule="evenodd" d="M14.9277 103.611C14.9277 103.611 15.1998 103.324 14.6881 103.211V102.74H14.9962C14.9948 101.568 14.1265 100.557 12.9133 100.314V99.7426H12.9937V99H11.0135V99.7426H11.07V100.32C9.8687 100.575 9.0152 101.583 9.01616 102.747H9.28829V103.198C9.28829 103.198 8.63963 103.488 9.28829 104.007C9.93696 104.527 9.83598 104.902 9.83598 104.902C9.83598 104.902 9.56385 105.873 9.01788 105.999V114.999C9.01742 115.529 9.2401 116.038 9.63686 116.414C10.0336 116.789 10.572 117 11.1333 117H12.8054C13.9747 117 14.9226 116.104 14.9226 114.999V105.999C14.9226 105.999 13.9658 105.321 14.137 104.902C14.3666 104.454 14.6309 104.022 14.9277 103.611Z" fill="#464353"/>
<defs>
<linearGradient id="paint0_linear" x1="178" y1="119.003" x2="178" y2="16.9937" gradientUnits="userSpaceOnUse">
<stop stop-color="#808080" stop-opacity="0.25"/>
<stop offset="0.54" stop-color="#808080" stop-opacity="0.12"/>
<stop offset="1" stop-color="#808080" stop-opacity="0.1"/>
</linearGradient>
</defs>
</svg>
