<svg width="173" height="113" viewBox="0 0 173 113" fill="none" xmlns="http://www.w3.org/2000/svg">
<path opacity="0.1" fill-rule="evenodd" clip-rule="evenodd" d="M3.34553 35.8625C2.04443 39.7764 5.8698 43.2964 8.87859 46.1312C12.997 50.0203 16.2466 54.7262 18.4166 59.9436C19.7245 63.0966 20.6342 66.4887 20.3903 69.8909C19.6991 79.5402 10.5541 85.9691 3.24727 92.361C2.21215 93.2751 1.17703 94.2313 0.573918 95.4635C-1.36248 99.4178 1.92923 103.975 5.55469 106.497C18.4657 115.473 37.1013 112.803 49.6243 103.3C56.1095 98.3775 61.6832 91.6843 69.5424 89.4958C74.5672 88.1037 79.9003 88.7636 85.0996 89.1928C92.8955 89.8346 100.727 89.9269 108.536 89.4689C111.277 89.3006 114.144 89.038 116.44 87.5414C122.252 83.7571 121.271 74.7845 125.466 69.2798C128.481 65.3238 133.633 63.7986 138.118 61.6119C145.02 58.2275 150.78 52.9168 154.691 46.3299C158.292 40.241 160.157 33.3188 161.976 26.4943C163.349 21.3666 164.726 15.9966 163.564 10.8167C162.402 5.63687 157.814 0.800436 152.494 1.25496C148.41 1.60342 145.16 4.81031 141.226 5.9584C131.804 8.71582 122.655 -0.861088 112.88 0.0631034C106.725 0.643879 101.761 5.28167 98.009 10.1636C94.2565 15.0454 91.0799 20.5418 86.1246 24.2183C78.4163 29.9419 67.855 30.1439 58.4186 28.2905C48.9823 26.4371 39.9288 22.7891 30.3874 21.5737C24.7662 20.8582 20.458 24.1863 15.3959 26.0162C10.7506 27.6962 5.06678 30.686 3.34553 35.8625Z" fill="#2D92AF"/>
<path opacity="0.1" fill-rule="evenodd" clip-rule="evenodd" d="M23.5 113C30.4036 113 36 111.209 36 109C36 106.791 30.4036 105 23.5 105C16.5964 105 11 106.791 11 109C11 111.209 16.5964 113 23.5 113Z" fill="#2D92AF"/>
<path opacity="0.1" fill-rule="evenodd" clip-rule="evenodd" d="M139.5 63C158.002 63 173 62.1046 173 61C173 59.8954 158.002 59 139.5 59C120.998 59 106 59.8954 106 61C106 62.1046 120.998 63 139.5 63Z" fill="#2D92AF"/>
<g opacity="0.5">
<path fill-rule="evenodd" clip-rule="evenodd" d="M120.81 12.068C121.753 12.068 122.518 12.8416 122.518 13.7959V61.8401H119.103V13.7942C119.104 12.8406 119.868 12.068 120.81 12.068Z" fill="#2D92AF"/>
<path fill-rule="evenodd" clip-rule="evenodd" d="M158.272 12.068C159.215 12.068 159.98 12.8416 159.98 13.7959V61.8401H156.557V13.7942C156.557 13.3348 156.738 12.8944 157.06 12.5705C157.382 12.2466 157.818 12.0658 158.272 12.068Z" fill="#2D92AF"/>
<path fill-rule="evenodd" clip-rule="evenodd" d="M168.216 19.352C169.171 19.352 169.944 20.1256 169.944 21.0799C169.944 22.0342 169.171 22.8078 168.216 22.8078L110.867 22.8078C109.913 22.8078 109.139 22.0342 109.139 21.0799C109.139 20.1256 109.913 19.352 110.867 19.352L168.216 19.352Z" fill="#2D92AF"/>
<rect x="115.413" y="14.5884" width="2.67526" height="12.9796" rx="1.33763" fill="#2D92AF"/>
<rect x="112.737" y="15.8027" width="2.67526" height="10.5527" rx="1.33763" fill="#2D92AF"/>
<rect x="163.67" y="27.568" width="2.67526" height="12.9796" rx="1.33763" transform="rotate(-180 163.67 27.568)" fill="#2D92AF"/>
<rect x="166.345" y="26.3537" width="2.67526" height="10.5527" rx="1.33763" transform="rotate(180 166.345 26.3537)" fill="#2D92AF"/>
</g>
<g opacity="0.5">
<path fill-rule="evenodd" clip-rule="evenodd" d="M134.969 32.1073H142.033C143.63 32.1073 144.924 33.3837 144.924 34.9583V46.9255H132.085V34.9583C132.085 33.3864 133.375 32.111 134.969 32.1073Z" fill="#2D92AF"/>
<rect x="137.557" y="45.8505" width="1.87908" height="6.17646" fill="#2D92AF"/>
<rect x="133.799" y="52.7984" width="1.87908" height="6.17646" fill="#2D92AF"/>
<rect x="141.628" y="52.7984" width="1.87908" height="6.17646" fill="#2D92AF"/>
<rect x="132.078" y="51.5624" width="12.839" height="1.69882" fill="#2D92AF"/>
</g>
<path opacity="0.1" fill-rule="evenodd" clip-rule="evenodd" d="M80 103C118.66 103 150 100.538 150 97.5C150 94.4624 118.66 92 80 92C41.3401 92 10 94.4624 10 97.5C10 100.538 41.3401 103 80 103Z" fill="#2D92AF"/>
<path fill-rule="evenodd" clip-rule="evenodd" d="M99 78.8364C99 78.8364 103.796 81.077 106.117 81.077C106.117 81.077 108.592 81.7167 109.982 82.3582C111.372 82.9996 116.789 83.3177 116.789 83.3177C116.789 83.3177 123.133 85.7183 123.906 86.8395C124.679 87.9607 127 82.8414 127 82.8414L125.761 79.6412L102.403 75L99 78.8364Z" fill="#FFB9B9"/>
<path opacity="0.05" fill-rule="evenodd" clip-rule="evenodd" d="M99 78.8364C99 78.8364 103.796 81.077 106.117 81.077C106.117 81.077 108.592 81.7167 109.982 82.3582C111.372 82.9996 116.789 83.3177 116.789 83.3177C116.789 83.3177 123.133 85.7183 123.906 86.8395C124.679 87.9607 127 82.8414 127 82.8414L125.761 79.6412L102.403 75L99 78.8364Z" fill="black"/>
<path fill-rule="evenodd" clip-rule="evenodd" d="M122 86.203C122 86.203 125.052 90.025 123.768 92.3233C122.483 94.6215 122.965 94.6181 123.768 94.771C124.571 94.9239 129.07 95.8429 129.553 92.4761C130.037 89.1094 131 81.6132 131 81.6132L124.403 81C124.403 81 126.178 86.6616 122 86.203Z" fill="#737A9D"/>
<path fill-rule="evenodd" clip-rule="evenodd" d="M85 73.5712L98.1606 80C98.1606 80 102.293 76.6241 101.983 74.8576L86.6804 71L85 73.5712Z" fill="#4C4C78"/>
<path opacity="0.1" fill-rule="evenodd" clip-rule="evenodd" d="M85 73.5712L98.1606 80C98.1606 80 102.293 76.6241 101.983 74.8576L86.6804 71L85 73.5712Z" fill="black"/>
<path fill-rule="evenodd" clip-rule="evenodd" d="M141 82.874L139.567 86.2389L136.242 87C135.31 86.2501 134.314 85.5785 133.263 84.9927C131.473 83.9957 129.118 83.0203 126.889 83.1748C126.889 83.1748 118.007 81.7973 117.531 81.1808C117.531 81.1808 111.82 79.9561 110.552 80.109C109.941 80.1821 108.626 79.7584 107.431 79.2981C106.147 78.7996 105 78.2728 105 78.2728L109.124 72C109.605 72.1997 110.1 72.3663 110.606 72.4985C112.182 72.9438 115.019 73.5221 119.118 73.5221C125.78 73.5221 134.979 80.1007 134.979 80.1007C134.979 80.1007 135.07 80.1306 135.227 80.1755C135.916 80.3765 137.88 80.8501 138.786 80.1007C139.889 79.2017 141 82.874 141 82.874Z" fill="#FFB9B9"/>
<path opacity="0.1" fill-rule="evenodd" clip-rule="evenodd" d="M141 81.8912L139.518 85.2421L136.08 86C135.117 85.2532 134.086 84.5844 133 84.0011C138.002 84.3502 135.015 79.2205 135.015 79.2205H135.025C135.738 79.4207 137.769 79.8923 138.706 79.146C139.851 78.2342 141 81.8912 141 81.8912Z" fill="black"/>
<path fill-rule="evenodd" clip-rule="evenodd" d="M135 84.3339C135 84.3339 138.558 89.5884 137.061 92.5479C135.564 95.5074 136.125 95.5057 137.061 95.7043C137.997 95.9028 143.241 97.0856 143.802 92.7464C144.233 89.41 143.855 83.0064 143.657 80.2269C143.631 79.8725 143.472 79.5437 143.214 79.3141C142.956 79.0845 142.622 78.9733 142.286 79.0054L137.083 79.5102C137.083 79.5102 139.869 84.9262 135 84.3339Z" fill="#737A9D"/>
<path fill-rule="evenodd" clip-rule="evenodd" d="M44 89.6422L44.1578 97.6876L45.895 99H51.8956L53 97.3595V89.6422L51.2628 88H45.5795L44 89.6422Z" fill="#2D92AF"/>
<path opacity="0.2" fill-rule="evenodd" clip-rule="evenodd" d="M45.3164 90C45.3164 90 46.8545 97.3457 45.3164 98L44.2194 97.8369L44 90.0018L45.3164 90Z" fill="white"/>
<path fill-rule="evenodd" clip-rule="evenodd" d="M58.0033 89.2314L59.2213 88H65.0055L66.2235 89.2314C66.2235 89.2314 67.7456 93.6926 66.5276 96.6149L65.1543 98H59.37L58 96.7686L58.0033 89.2314Z" fill="#2D92AF"/>
<path opacity="0.1" fill-rule="evenodd" clip-rule="evenodd" d="M44 89.6422L44.1578 97.6876L45.895 99H51.8956L53 97.3595V89.6422L51.2628 88H45.5795L44 89.6422Z" fill="black"/>
<path opacity="0.1" fill-rule="evenodd" clip-rule="evenodd" d="M58.0033 89.2314L59.2213 88H65.0055L66.2235 89.2314C66.2235 89.2314 67.7456 93.6926 66.5276 96.6149L65.1543 98H59.37L58 96.7686L58.0033 89.2314Z" fill="black"/>
<path opacity="0.2" fill-rule="evenodd" clip-rule="evenodd" d="M59.4336 89.3263C59.4336 89.3263 60.708 95.0421 59.4336 97H58V89L59.4336 89.3263Z" fill="white"/>
<path fill-rule="evenodd" clip-rule="evenodd" d="M53 63C53 63 53.7054 68.8718 53.7054 69.6239C53.7054 70.3761 53.3527 75.3469 54.4109 80.1623C55.469 84.9778 53.7054 91 53.7054 91H59.5291L62 74.7402L60.2345 66.1591L59.5291 63.4497L53 63Z" fill="#FFB9B9"/>
<path opacity="0.05" fill-rule="evenodd" clip-rule="evenodd" d="M53 63C53 63 53.7054 68.8718 53.7054 69.6239C53.7054 70.3761 53.3527 75.3469 54.4109 80.1623C55.469 84.9778 53.7054 91 53.7054 91H59.5291L62 74.7402L60.2345 66.1591L59.5291 63.4497L53 63Z" fill="black"/>
<path fill-rule="evenodd" clip-rule="evenodd" d="M52.6714 48.1201C52.6714 48.1201 45.4993 48.2786 51.2037 59.8542C51.2037 59.8542 52.6714 64.6112 52.6714 65.4052C52.6714 66.1991 60.0064 66.1974 60.8155 65.4052C61.6246 64.6129 59.5107 58.1112 59.5107 55.0972C59.5107 52.0831 57.3985 47.1694 52.6714 48.1201Z" fill="#CBCDDA"/>
<path opacity="0.05" fill-rule="evenodd" clip-rule="evenodd" d="M52.6714 48.1201C52.6714 48.1201 45.4993 48.2786 51.2037 59.8542C51.2037 59.8542 52.6714 64.6112 52.6714 65.4052C52.6714 66.1991 60.0064 66.1974 60.8155 65.4052C61.6246 64.6129 59.5107 58.1112 59.5107 55.0972C59.5107 52.0831 57.3985 47.1694 52.6714 48.1201Z" fill="black"/>
<path fill-rule="evenodd" clip-rule="evenodd" d="M45.3446 42C45.3446 42 51.1311 48.3074 56 43.6926L55.3916 60C55.3916 60 47.4757 50.3091 42 51.0777L45.3446 42Z" fill="#FFB9B9"/>
<path opacity="0.1" fill-rule="evenodd" clip-rule="evenodd" d="M111 71.5556C110.785 73.5209 110.109 77.6594 108.168 79C107.023 78.4536 106 77.8761 106 77.8761L109.679 71C110.107 71.222 110.549 71.4077 111 71.5556Z" fill="black"/>
<path fill-rule="evenodd" clip-rule="evenodd" d="M112 70.5278C112 70.5278 111.533 78.3611 107.797 79L85.2318 74.8195C84.1366 74.6151 83.1069 74.1382 82.2327 73.4306C81.3215 72.6945 80.2041 71.6945 79.5431 70.7778C79.1847 70.2778 78.9683 69.8004 79.0038 69.4063C79.1593 67.6476 86.0078 63.4914 83.6731 56.1389C84.005 55.869 84.3742 55.6514 84.7686 55.4931C86.7178 54.6615 91.2045 54.0504 97.681 60.9341C97.681 60.9428 109.665 70.8542 112 70.5278Z" fill="#4C4C78"/>
<path fill-rule="evenodd" clip-rule="evenodd" d="M50 89.6405L50.1578 97.6858L51.8933 99H57.8939L59 97.3578V89.6405L57.2628 88H51.5777L50 89.6405Z" fill="#2D92AF"/>
<path opacity="0.2" fill-rule="evenodd" clip-rule="evenodd" d="M51.3164 91C51.3164 91 52.8545 98.3457 51.3164 99L50.2194 98.8369L50 91H51.3164Z" fill="white"/>
<path fill-rule="evenodd" clip-rule="evenodd" d="M68 89.2314L69.2184 88H75.0048L76.2233 89.2314C76.2233 89.2314 77.7459 93.6926 76.5275 96.6149L75.1569 98H69.3705L68 96.7686L68 89.2314Z" fill="#2D92AF"/>
<path opacity="0.2" fill-rule="evenodd" clip-rule="evenodd" d="M68.4336 89.3263C68.4336 89.3263 69.708 95.0421 68.4336 97H67V89L68.4336 89.3263Z" fill="white"/>
<path fill-rule="evenodd" clip-rule="evenodd" d="M59.2136 92H67.7851C68.4562 92 69 92.6705 69 93.5C69 94.3276 68.4562 95 67.7851 95H59.2136C58.4857 95 57.9212 94.2165 58.009 93.3257C58.0796 92.569 58.5993 92 59.2136 92Z" fill="#2D92AF"/>
<path opacity="0.1" fill-rule="evenodd" clip-rule="evenodd" d="M83.0205 68.4241C81.394 69.5881 79.6798 70.3505 78.5305 71C78.1804 70.5142 77.969 70.0503 78.0037 69.6673C78.1556 67.9585 84.8453 63.92 82.5648 56.776C82.889 56.5137 83.2497 56.3022 83.6349 56.1484C83.9921 56.1407 84.3473 56.0909 84.6934 56C84.6934 56 86.0607 66.2497 83.0205 68.4241Z" fill="black"/>
<path fill-rule="evenodd" clip-rule="evenodd" d="M49.1071 54.6014C49.1071 54.6014 51.4125 56.9399 53.6411 58.4215C55.6977 59.788 52.0268 46.0266 52.0268 46.0266C52.0268 46.0266 54.3038 44.1639 55.641 43.0582C56.534 42.313 57.6718 41.938 58.8261 42.0084C61.9027 42.2099 67.5385 43.5222 72.0858 49.8483C78.6948 59.0463 84.6894 57.1752 84.6894 57.1752C84.6894 57.1752 86.0733 67.4654 82.9984 69.648C79.9234 71.8307 76.543 72.6096 77.1556 73.8576C77.7683 75.1055 74.3895 67.7769 66.7038 66.5307C59.0181 65.2844 50.5645 59.8269 50.7197 57.1769C50.7214 57.1752 48.4928 55.3854 49.1071 54.6014Z" fill="#CBCDDA"/>
<path opacity="0.1" fill-rule="evenodd" clip-rule="evenodd" d="M46.93 45.7256C46.9293 45.2768 46.8924 44.829 46.8198 44.3871C44.9208 43.3756 45.1901 42 45.1901 42L42 51.1571C43.1668 50.9885 44.45 51.3392 45.738 52C47.4339 50.5654 46.93 48.202 46.93 45.7256Z" fill="black"/>
<path fill-rule="evenodd" clip-rule="evenodd" d="M41 53C45.4183 53 49 49.4183 49 45C49 40.5817 45.4183 37 41 37C36.5817 37 33 40.5817 33 45C33 49.4183 36.5817 53 41 53Z" fill="#FFB9B9"/>
<path opacity="0.1" fill-rule="evenodd" clip-rule="evenodd" d="M33.233 47.6845C33.0956 48.1365 32.8838 48.6017 32.4846 48.8433C31.9996 49.138 31.3304 48.9923 30.8988 48.6116C30.4672 48.2308 30.2344 47.6613 30.1132 47.0919C29.9386 46.2673 29.9663 45.4113 30.194 44.6004C30.388 43.9134 30.7226 43.276 30.8632 42.5724C31.0136 41.8242 30.9376 41.0411 31.1057 40.2962C31.3336 39.2864 31.9835 38.4404 32.6171 37.6309C33.0183 37.0065 33.6503 36.5762 34.3677 36.439L37.4827 35.4771C38.0732 35.2746 38.6802 35.1261 39.2963 35.0335C40.0885 34.9504 40.8888 35.0223 41.6548 35.2454C42.2647 35.4025 42.8434 35.6669 43.365 36.0267C43.8818 36.42 44.337 36.8917 44.7147 37.4256C46.3619 39.6307 47.3011 43.2379 49 45.4083C48.3292 45.6202 47.6583 44.9116 46.9875 45.1268C46.8921 45.1689 46.7859 45.1777 46.6852 45.1517C46.5855 45.0962 46.5073 45.0074 46.4638 44.9C45.8726 43.8424 44.9422 43.027 43.8305 42.5923C43.0061 42.2728 41.8908 42.2745 41.4398 43.0492C41.1343 43.5723 41.2571 44.2329 41.3379 44.8371C41.4188 45.4414 41.4042 46.1615 40.9371 46.534C40.6789 46.7127 40.3785 46.8167 40.0674 46.8353C38.6175 47.0299 37.1434 46.8821 35.7579 46.4032C35.273 46.2376 34.7799 45.7195 34.2675 45.885C33.5757 46.1085 33.4156 47.0836 33.233 47.6845Z" fill="black"/>
<path fill-rule="evenodd" clip-rule="evenodd" d="M33.233 47.6844C33.0956 48.1364 32.8838 48.6016 32.4846 48.8433C31.9996 49.138 31.3304 48.9923 30.8988 48.6115C30.4672 48.2307 30.2344 47.6612 30.1132 47.0916C29.9386 46.267 29.9663 45.4108 30.194 44.5999C30.388 43.9128 30.7226 43.2753 30.8632 42.5717C31.0136 41.8233 30.9376 41.0402 31.1057 40.2952C31.3336 39.2852 31.9835 38.4392 32.6171 37.6295C33.0183 37.0051 33.6503 36.5748 34.3677 36.4375L37.4827 35.4755C38.0733 35.2735 38.6802 35.1256 39.2963 35.0335C40.0885 34.9504 40.8888 35.0223 41.6548 35.2454C42.2647 35.4025 42.8434 35.6669 43.365 36.0269C43.8818 36.4201 44.337 36.8919 44.7147 37.4259C46.3619 39.6312 47.3011 43.2389 49 45.4095C48.3292 45.6214 47.6583 44.9128 46.9875 45.128C46.8921 45.1701 46.7859 45.1789 46.6852 45.1529C46.5843 45.098 46.5049 45.0091 46.4605 44.9012C45.8694 43.8435 44.9389 43.028 43.8273 42.5932C43.0029 42.2737 41.8875 42.2753 41.4366 43.0502C41.131 43.5734 41.2539 44.234 41.3347 44.8383C41.4155 45.4426 41.401 46.1628 40.9338 46.5353C40.6757 46.714 40.3752 46.8181 40.0642 46.8367C38.6143 47.0313 37.1402 46.8835 35.7547 46.4045C35.2697 46.239 34.7767 45.7208 34.2643 45.8863C33.5757 46.1082 33.4156 47.0834 33.233 47.6844Z" fill="#B96B6B"/>
<g opacity="0.1">
<path fill-rule="evenodd" clip-rule="evenodd" d="M52.6503 45.0514L52.1279 45.4689C52.1279 45.4689 54.2863 53.3602 54.3717 56.4601C55.4734 56.1652 53.3536 47.7221 52.6503 45.0514Z" fill="black"/>
<path fill-rule="evenodd" clip-rule="evenodd" d="M83.493 67.3586C80.4104 69.4942 77.018 70.2563 77.6325 71.4774C78.2471 72.6985 74.858 65.5278 67.149 64.3084C59.9172 63.1635 52.0072 58.3936 51.1834 55.6665C50.0281 54.689 49.1875 53.8589 49.1875 53.8589C48.5713 54.6211 50.8067 56.3756 50.8067 56.3756C50.6526 58.9685 59.1319 64.3084 66.8392 65.5278C74.5466 66.7472 77.939 73.9179 77.3228 72.6968C76.7066 71.4757 80.0973 70.7086 83.1832 68.578C84.0657 67.9666 84.5814 66.7058 84.8694 65.2163C84.5713 66.1591 84.1293 66.9228 83.493 67.3586Z" fill="black"/>
</g>
<path fill-rule="evenodd" clip-rule="evenodd" d="M66.8846 81.9438C66.4405 82.5552 66.1445 88.827 66.1445 88.827C66.1445 88.827 67.9143 97.8516 62.4439 96.9346C56.9735 96.0175 61.7038 89.5929 61.7038 89.5929L60.9637 80.721C58.1496 73.0786 58.7417 67.5661 58.7417 67.5661L58.2156 62.5703L58 60.5301L64.3698 59C64.1961 59.2392 64.2701 60.7312 64.4261 62.464C64.6691 65.1787 65.1099 68.4832 65.1099 68.4832C66.4389 70.0117 67.3287 81.3308 66.8846 81.9438Z" fill="#FFB9B9"/>
<path opacity="0.1" fill-rule="evenodd" clip-rule="evenodd" d="M57.6714 44.1205C57.6714 44.1205 50.4993 44.2789 56.2037 55.8543C56.2037 55.8543 57.6714 60.6112 57.6714 61.4052C57.6714 62.1991 65.0064 62.1974 65.8155 61.4052C66.6246 60.6129 64.5107 54.1114 64.5107 51.0974C64.5107 48.0834 62.3985 43.1681 57.6714 44.1205Z" fill="black"/>
<path opacity="0.1" fill-rule="evenodd" clip-rule="evenodd" d="M66 61.66C64.4931 62.0725 60.7995 62.1093 59.2348 61.7723L59 59.6167L65.9369 58C65.7512 58.251 65.8318 59.8273 66 61.66Z" fill="black"/>
<path fill-rule="evenodd" clip-rule="evenodd" d="M57.6714 44.1205C57.6714 44.1205 50.4993 44.2789 56.2037 55.8543C56.2037 55.8543 57.6714 60.6112 57.6714 61.4052C57.6714 62.1991 65.0064 62.1974 65.8155 61.4052C66.6246 60.6129 64.5107 54.1114 64.5107 51.0974C64.5107 48.0834 62.3985 43.1681 57.6714 44.1205Z" fill="#CBCDDA"/>
<g opacity="0.5">
<path fill-rule="evenodd" clip-rule="evenodd" d="M12.9959 68.0874L7.97861 68.1922L7.16064 69.3421V73.3161L8.18396 74.0483H12.9959L14.021 72.8984V69.1342L12.9959 68.0874Z" fill="#2D92AF"/>
<path opacity="0.2" fill-rule="evenodd" clip-rule="evenodd" d="M12.8953 68.7148C12.8953 68.7148 8.28691 69.447 7.87793 68.7148L7.9806 68.1905L12.8953 68.0856V68.7148Z" fill="white"/>
<path fill-rule="evenodd" clip-rule="evenodd" d="M13.4068 79.5899L14.2265 80.427V84.401L13.4068 85.2381C13.4068 85.2381 10.4378 86.2866 8.49218 85.4478L7.56982 84.5058V80.5318L8.3895 79.5899H13.4068Z" fill="#2D92AF"/>
<path opacity="0.2" fill-rule="evenodd" clip-rule="evenodd" d="M13.2016 80.5318C13.2016 80.5318 9.61831 81.3689 8.38965 80.5318V79.5899H13.407L13.2016 80.5318Z" fill="white"/>
<path fill-rule="evenodd" clip-rule="evenodd" d="M11.4613 74.0204V79.6773C11.4364 80.1438 11.0472 80.5022 10.5903 80.4794C10.1333 80.5022 9.74411 80.1438 9.71924 79.6773V74.0204C9.71924 73.5398 10.1744 73.1676 10.6912 73.2235C11.1097 73.249 11.4419 73.5927 11.4613 74.0204Z" fill="#2D92AF"/>
<path fill-rule="evenodd" clip-rule="evenodd" d="M21.0323 68.2482L16.015 68.353L15.1953 69.5029V73.4769L16.2203 74.2091H21.0323L22.0556 73.0592V69.2949L21.0323 68.2482Z" fill="#2D92AF"/>
<path opacity="0.2" fill-rule="evenodd" clip-rule="evenodd" d="M20.9294 68.8773C20.9294 68.8773 16.3211 69.6095 15.9121 68.8773L16.0148 68.353L20.9294 68.2482V68.8773Z" fill="white"/>
<path fill-rule="evenodd" clip-rule="evenodd" d="M21.441 79.7524L22.2607 80.5895V84.5635L21.441 85.4006C21.441 85.4006 18.472 86.4491 16.5264 85.6103L15.604 84.6684V80.6926L16.4237 79.7507L21.441 79.7524Z" fill="#2D92AF"/>
<path opacity="0.2" fill-rule="evenodd" clip-rule="evenodd" d="M21.2373 80.6926C21.2373 80.6926 17.654 81.5297 16.4253 80.6926V79.7507H21.4426L21.2373 80.6926Z" fill="white"/>
<path fill-rule="evenodd" clip-rule="evenodd" d="M19.492 74.1812V79.8381C19.4672 80.3046 19.078 80.663 18.621 80.6402C18.1641 80.663 17.7749 80.3046 17.75 79.8381V74.1812C17.75 73.7006 18.2052 73.3284 18.722 73.3843C19.1404 73.4097 19.4726 73.7535 19.492 74.1812Z" fill="#2D92AF"/>
<path fill-rule="evenodd" clip-rule="evenodd" d="M31.2617 71.2749L27.1308 71.3606L26.4565 72.3078V75.5792L27.3002 76.1804H31.2617L32.1036 75.2332V72.1348L31.2617 71.2749Z" fill="#2D92AF"/>
<path opacity="0.2" fill-rule="evenodd" clip-rule="evenodd" d="M31.1763 71.7905C31.1763 71.7905 27.3825 72.3934 27.0454 71.7905L27.1293 71.3606L31.1746 71.2749L31.1763 71.7905Z" fill="white"/>
<path fill-rule="evenodd" clip-rule="evenodd" d="M31.5991 80.7433L32.2733 81.4318V84.7033L31.5991 85.3918C31.5991 85.3918 29.1554 86.2534 27.5537 85.5666L26.7939 84.7924V81.5175L27.4682 80.7433H31.5991Z" fill="#2D92AF"/>
<path opacity="0.2" fill-rule="evenodd" clip-rule="evenodd" d="M31.4298 81.5175C31.4298 81.5175 28.4796 82.206 27.4683 81.5175V80.7433H31.5992L31.4298 81.5175Z" fill="white"/>
<path fill-rule="evenodd" clip-rule="evenodd" d="M29.997 76.1577V80.815C29.9749 81.1977 29.655 81.4909 29.28 81.472C28.9037 81.4909 28.5833 81.1956 28.563 80.8115V76.1577C28.575 75.9585 28.6689 75.7737 28.8214 75.6489C28.9739 75.5242 29.1709 75.4709 29.3638 75.5023C29.7079 75.5234 29.981 75.8061 29.997 76.1577Z" fill="#2D92AF"/>
<path fill-rule="evenodd" clip-rule="evenodd" d="M37.8759 71.406L33.745 71.4934L33.0708 72.4388V75.7103L33.9144 76.3132H37.8759L38.7196 75.366V72.2676L37.8759 71.406Z" fill="#2D92AF"/>
<path opacity="0.2" fill-rule="evenodd" clip-rule="evenodd" d="M37.792 71.9233C37.792 71.9233 33.9982 72.5262 33.6611 71.9233L33.745 71.4934L37.7903 71.4078L37.792 71.9233Z" fill="white"/>
<path fill-rule="evenodd" clip-rule="evenodd" d="M38.2126 80.8761L38.8868 81.5647V84.8361L38.2126 85.5247C38.2126 85.5247 35.769 86.3862 34.1673 85.6994L33.4092 84.9252V81.6468L34.0834 80.8726L38.2126 80.8761Z" fill="#2D92AF"/>
<path opacity="0.2" fill-rule="evenodd" clip-rule="evenodd" d="M38.045 81.6468C38.045 81.6468 35.0948 82.3353 34.0835 81.6468V80.8726H38.2127L38.045 81.6468Z" fill="white"/>
<path fill-rule="evenodd" clip-rule="evenodd" d="M36.6044 76.2905V80.9478C36.5842 81.3319 36.2637 81.6272 35.8874 81.6083C35.5111 81.6272 35.1907 81.3319 35.1704 80.9478V76.2905C35.1824 76.0913 35.2763 75.9065 35.4288 75.7818C35.5813 75.657 35.7783 75.6037 35.9713 75.6351C36.3153 75.6562 36.5884 75.9389 36.6044 76.2905Z" fill="#2D92AF"/>
</g>
<g opacity="0.8">
<path fill-rule="evenodd" clip-rule="evenodd" d="M19.8858 99.2308C19.8858 99.2308 17.6085 98.4524 16.5108 100.478C15.9231 101.594 15.9413 102.935 16.559 104.034C17.279 105.348 18.7624 107.052 21.5733 106.901C23.9583 106.773 24.7506 104.936 24.966 103.228C25.1335 101.926 24.6178 100.629 23.6044 99.8047C22.5911 98.9804 21.2258 98.7471 19.9999 99.1887L19.8858 99.2308Z" fill="#2D92AF"/>
<path opacity="0.1" fill-rule="evenodd" clip-rule="evenodd" d="M17.0428 104.214C16.425 103.115 16.4068 101.774 16.9946 100.658C18.0906 98.6324 20.3696 99.4108 20.3696 99.4108L20.4869 99.3686C21.3551 99.0516 22.3094 99.073 23.1628 99.4286C22.2082 98.8541 21.0484 98.7422 20.0031 99.1238L19.8858 99.1659C19.8858 99.1659 17.6085 98.3876 16.5108 100.413C15.9231 101.529 15.9413 102.87 16.559 103.969C17.0412 104.834 17.8448 105.866 19.1305 106.429C18.2476 105.897 17.5257 105.131 17.0428 104.214Z" fill="white"/>
<path opacity="0.2" fill-rule="evenodd" clip-rule="evenodd" d="M18.7095 100.204C18.7095 100.204 19.5532 100.874 21.6023 100.204H18.7095Z" fill="black"/>
<path fill-rule="evenodd" clip-rule="evenodd" d="M18.5298 95.3389C18.5298 95.3389 19.9762 99.2957 19.8573 100.33L21.0032 100.209C21.0032 100.209 19.0746 96.74 19.5567 95.3438L18.5298 95.3389Z" fill="#2D92AF"/>
<path opacity="0.2" fill-rule="evenodd" clip-rule="evenodd" d="M18.5298 95.3389C18.5298 95.3389 19.9762 99.2957 19.8573 100.33L21.0032 100.209C21.0032 100.209 19.0746 96.74 19.5567 95.3438L18.5298 95.3389Z" fill="black"/>
<path fill-rule="evenodd" clip-rule="evenodd" d="M24.4377 95.6632C24.4377 95.6632 22.1587 94.4876 21.1398 95.4589C20.1209 96.4303 19.9634 98.913 19.9634 98.913C19.9634 98.913 23.6791 99.4303 24.4377 95.6632Z" fill="#2D92AF"/>
<path opacity="0.1" fill-rule="evenodd" clip-rule="evenodd" d="M24.4377 95.6632C24.4377 95.6632 22.1587 94.4876 21.1398 95.4589C20.1209 96.4303 19.9634 98.913 19.9634 98.913C19.9634 98.913 23.6791 99.4303 24.4377 95.6632Z" fill="white"/>
<path d="M19.9634 98.9065C19.9634 98.9065 20.5612 96.0249 24.4377 95.6632" stroke="#2D92AF"/>
</g>
<path fill-rule="evenodd" clip-rule="evenodd" d="M30.8397 103.264C30.8397 103.264 28.5406 102.48 27.4324 104.52C26.839 105.644 26.8574 106.995 27.4811 108.102C28.208 109.426 29.7056 111.143 32.5434 110.991C34.9512 110.862 35.7511 109.011 35.9685 107.291C36.1377 105.978 35.617 104.672 34.5939 103.842C33.5709 103.012 32.1925 102.777 30.9549 103.221L30.8397 103.264Z" fill="#2D92AF"/>
<path opacity="0.1" fill-rule="evenodd" clip-rule="evenodd" d="M27.085 108.646C26.387 107.478 26.3664 106.053 27.0305 104.867C28.269 102.715 30.8439 103.542 30.8439 103.542L30.9765 103.497C31.9575 103.16 33.0357 103.183 34 103.561C32.9214 102.951 31.6109 102.832 30.4299 103.237L30.2974 103.282C30.2974 103.282 27.7242 102.455 26.4839 104.607C25.8198 105.793 25.8404 107.218 26.5384 108.386C27.0832 109.304 27.9912 110.402 29.4439 111C28.4463 110.434 27.6306 109.62 27.085 108.646Z" fill="white"/>
<path opacity="0.2" fill-rule="evenodd" clip-rule="evenodd" d="M28 104C28 104 28.875 106.25 31 104H28Z" fill="black"/>
<path fill-rule="evenodd" clip-rule="evenodd" d="M30 99C30 99 31.1696 102.964 31.0734 104L32 103.878C32 103.878 30.4405 100.404 30.8304 99.0049L30 99Z" fill="#2D92AF"/>
<path opacity="0.2" fill-rule="evenodd" clip-rule="evenodd" d="M30 99C30 99 31.1696 102.964 31.0734 104L32 103.878C32 103.878 30.4405 100.404 30.8304 99.0049L30 99Z" fill="black"/>
<path fill-rule="evenodd" clip-rule="evenodd" d="M34 99.6097C34 99.6097 31.4533 98.3922 30.3147 99.3981C29.176 100.404 29 102.975 29 102.975C29 102.975 33.1523 103.509 34 99.6097Z" fill="#2D92AF"/>
<path opacity="0.1" fill-rule="evenodd" clip-rule="evenodd" d="M34 99.6097C34 99.6097 31.4533 98.3922 30.3147 99.3981C29.176 100.404 29 102.975 29 102.975C29 102.975 33.1523 103.509 34 99.6097Z" fill="white"/>
<path d="M29 103C29 103 29.6681 99.446 34 99" stroke="#2D92AF"/>
<path fill-rule="evenodd" clip-rule="evenodd" d="M10.9397 93.0985C10.9397 93.0985 11.1665 92.8441 10.7405 92.7423V92.3238H10.9968C10.9963 91.2811 10.2711 90.3806 9.25695 90.1637V89.6565H9.32387V89H7.67544V89.6565H7.72278V90.1703C6.72271 90.3986 6.01279 91.2924 6.01233 92.3238H6.24083V92.7259C6.24083 92.7259 5.69897 92.9836 6.24083 93.4432C6.78268 93.9027 6.69781 94.2458 6.69781 94.2458C6.69781 94.2458 6.46932 95.1059 6.01396 95.2208V103.222C6.01396 104.204 6.80533 105 7.78153 105H9.17861C10.1516 104.996 10.9388 104.203 10.9397 103.224V95.2208C10.9397 95.2208 10.1416 94.6184 10.2868 94.2458C10.4763 93.8478 10.6944 93.4644 10.9397 93.0985Z" fill="#2D92AF"/>
</svg>
